<?xml version="1.0" standalone="no"?>
<!DOCTYPE svg PUBLIC "-//W3C//DTD SVG 1.1//EN" "http://www.w3.org/Graphics/SVG/1.1/DTD/svg11.dtd" >
<svg xmlns="http://www.w3.org/2000/svg">
<metadata></metadata>
<defs>
<font id="andrade_pro_rgregular" horiz-adv-x="1390" >
<font-face units-per-em="2048" ascent="1454" descent="-594" />
<missing-glyph horiz-adv-x="471" />
<glyph unicode="&#xfb01;" horiz-adv-x="1130" d="M51 20q0 9 6 15t15 6h96q12 0 21.5 9.5t9.5 21.5v747h-127q-9 0 -15 6t-6 15q0 20 21 20h96q12 0 21.5 9.5t9.5 21.5v70q0 194 110.5 323t292.5 129q121 0 209 -59.5t88 -155.5q0 -36 -17.5 -54t-43.5 -18q-62 0 -62 82q0 72 -51 118t-113 46q-63 0 -109.5 -26 t-72.5 -65.5t-42 -97.5t-21 -110.5t-5 -116.5v-96h472q20 0 40 4l60 13q17 3 22 -13q5 -17 -14 -24q-12 -5 -12 -27v-741q0 -12 9.5 -21.5t21.5 -9.5h98q20 0 20 -21q0 -20 -20 -20h-420q-21 0 -21 20q0 9 6 15t15 6h96q12 0 21.5 9.5t9.5 21.5v716q0 12 -9.5 21.5 t-21.5 9.5h-342q-12 0 -21.5 -9.5t-9.5 -21.5v-716q0 -12 9.5 -21.5t21.5 -9.5h99q20 0 20 -21q0 -20 -20 -20h-420q-21 0 -21 20z" />
<glyph unicode="&#xfb02;" horiz-adv-x="1130" d="M51 20q0 9 6 15t15 6h96q12 0 21.5 9.5t9.5 21.5v747h-127q-9 0 -15 6t-6 15q0 20 21 20h96q12 0 21.5 9.5t9.5 21.5v70q0 128 42 229t129.5 162t207.5 61q59 0 140.5 -26t104.5 -21l111 23q17 3 22 -13q5 -17 -14 -24q-12 -5 -12 -27v-1253q0 -12 9.5 -21.5t21.5 -9.5 h98q20 0 20 -21q0 -20 -20 -20h-420q-21 0 -21 20q0 9 6 15t15 6h96q12 0 21.5 9.5t9.5 21.5v1147q0 71 -56.5 112t-121.5 41q-45 0 -80.5 -14t-59 -35t-40.5 -56t-25.5 -67.5t-13.5 -79.5t-6 -81t-1 -83v-96h211q21 0 21 -20q0 -9 -6 -15t-15 -6h-180q-12 0 -21.5 -9.5 t-9.5 -21.5v-716q0 -12 9.5 -21.5t21.5 -9.5h99q20 0 20 -21q0 -20 -20 -20h-420q-21 0 -21 20z" />
<glyph unicode="&#xfb03;" horiz-adv-x="1697" d="M51 20q0 9 6 15t15 6h96q12 0 21.5 9.5t9.5 21.5v747h-127q-9 0 -15 6t-6 15q0 20 21 20h96q12 0 21.5 9.5t9.5 21.5v70q0 194 110.5 323t292.5 129q81 0 162.5 -24t142.5 -74q109 98 262 98q121 0 209 -59.5t88 -155.5q0 -36 -17.5 -54t-43.5 -18q-62 0 -62 82 q0 72 -50.5 118t-112.5 46q-63 0 -109.5 -26t-72.5 -65.5t-42 -97.5t-21 -110.5t-5 -116.5v-96h471q21 0 41 4l59 13q17 3 23 -13q5 -16 -15 -24q-12 -5 -12 -27v-741q0 -12 9.5 -21.5t21.5 -9.5h98q9 0 15 -6t6 -15q0 -20 -21 -20h-420q-20 0 -20 20q0 21 20 21h97 q12 0 21 9.5t9 21.5v716q0 12 -9 21.5t-21 9.5h-342q-12 0 -21.5 -9.5t-9.5 -21.5v-716q0 -12 9.5 -21.5t21.5 -9.5h98q20 0 20 -21q0 -20 -20 -20h-420q-21 0 -21 20q0 9 6 15t15 6h96q12 0 21.5 9.5t9.5 21.5v747h-373q-12 0 -21.5 -9.5t-9.5 -21.5v-716q0 -12 9.5 -21.5 t21.5 -9.5h99q20 0 20 -21q0 -20 -20 -20h-420q-21 0 -21 20zM362 860h373q12 0 21.5 9.5t9.5 21.5v70q0 149 65 258q-23 65 -91.5 109t-127.5 44q-63 0 -109.5 -26t-72.5 -65.5t-42 -97.5t-21 -110.5t-5 -116.5v-96z" />
<glyph unicode="&#xfb04;" horiz-adv-x="1697" d="M51 20q0 9 6 15t15 6h96q12 0 21.5 9.5t9.5 21.5v747h-127q-9 0 -15 6t-6 15q0 20 21 20h96q12 0 21.5 9.5t9.5 21.5v70q0 194 110.5 323t292.5 129q186 0 301 -94q54 48 110 71t132 23q59 0 141 -26t105 -21l110 23q17 4 23 -13q5 -16 -15 -24q-12 -5 -12 -27v-1253 q0 -12 9.5 -21.5t21.5 -9.5h98q9 0 15 -6t6 -15q0 -20 -21 -20h-420q-20 0 -20 20q0 21 20 21h97q12 0 21 9.5t9 21.5v1147q0 71 -56.5 112t-121.5 41q-45 0 -80.5 -14t-59 -35t-40 -56.5t-25.5 -67t-13.5 -79.5t-5.5 -81t-1 -83v-96h211q20 0 20 -20q0 -21 -20 -21h-180 q-12 0 -21.5 -9.5t-9.5 -21.5v-716q0 -12 9.5 -21.5t21.5 -9.5h98q20 0 20 -21q0 -20 -20 -20h-420q-21 0 -21 20q0 9 6 15t15 6h96q12 0 21.5 9.5t9.5 21.5v747h-373q-12 0 -21.5 -9.5t-9.5 -21.5v-716q0 -12 9.5 -21.5t21.5 -9.5h99q20 0 20 -21q0 -20 -20 -20h-420 q-21 0 -21 20zM362 860h373q12 0 21.5 9.5t9.5 21.5v70q0 160 61 262q-24 64 -87.5 106.5t-127.5 42.5q-63 0 -109.5 -26t-72.5 -65.5t-42 -97.5t-21 -110.5t-5 -116.5v-96z" />
<glyph horiz-adv-x="0" />
<glyph unicode="&#xd;" horiz-adv-x="2048" />
<glyph unicode=" "  horiz-adv-x="471" />
<glyph unicode="&#x09;" horiz-adv-x="471" />
<glyph unicode="&#xa0;" horiz-adv-x="471" />
<glyph unicode="!" horiz-adv-x="546" d="M164 88q0 46 33 78.5t77 32.5t76.5 -32.5t32.5 -78.5q0 -45 -32 -76.5t-77 -31.5t-77.5 31.5t-32.5 76.5zM174 1294q0 40 28.5 69.5t69.5 29.5t70 -29.5t29 -69.5q0 -91 -30 -394.5t-54 -510.5q-2 -14 -15 -14q-12 0 -14 14q-24 207 -54 510.5t-30 394.5z" />
<glyph unicode="&#x22;" horiz-adv-x="774" d="M166 1296q-4 35 16 55.5t51 20.5t51.5 -20.5t16.5 -55.5q-45 -360 -51 -399q-3 -16 -17 -16q-13 0 -16 16q-6 39 -51 399zM473 1296q-4 35 16.5 55.5t51.5 20.5t51 -20.5t16 -55.5q-45 -360 -51 -399q-3 -16 -16 -16q-14 0 -17 16q-6 39 -51 399z" />
<glyph unicode="#" horiz-adv-x="1095" d="M164 707q0 13 8.5 21.5t22.5 8.5h180v226h-180q-14 0 -22.5 8.5t-8.5 21.5t8.5 22t22.5 9h180v283q0 14 9 22t22 8t21.5 -8t8.5 -22v-283h226v283q0 14 8.5 22t21.5 8t22 -8t9 -22v-283h178q14 0 22.5 -9t8.5 -22t-8.5 -21.5t-22.5 -8.5h-178v-226h178q14 0 22.5 -8.5 t8.5 -21.5t-8.5 -22t-22.5 -9h-178v-281q0 -14 -9 -22t-22 -8t-21.5 8t-8.5 22v281h-226v-281q0 -14 -8.5 -22t-21.5 -8t-22 8t-9 22v281h-180q-14 0 -22.5 9t-8.5 22zM436 737h226v226h-226v-226z" />
<glyph unicode="$" horiz-adv-x="1167" d="M123 10v338q0 12 7.5 21.5t19.5 9.5t19 -9t7 -22q0 -51 26 -114t64 -101q89 -89 266 -102v594q-4 1 -12 4t-12 4q-191 53 -281 149q-94 97 -94 244q0 160 114.5 269.5t284.5 117.5v113q0 14 9 22t22 8t22 -8t9 -22v-115q53 -4 133 -33q11 -5 33.5 -18t41 -21t34.5 -8 q15 0 24.5 11.5t13.5 24.5t12.5 24.5t22.5 11.5q23 0 23 -31v-338q0 -12 -7.5 -21t-19.5 -9t-19 9t-7 21q0 51 -25.5 117t-60.5 104q-77 86 -199 95v-533q19 -6 55 -17.5t58.5 -19t53.5 -18.5t58 -23q104 -46 164.5 -132.5t60.5 -203.5q0 -98 -36 -179t-98.5 -134 t-143 -83.5t-172.5 -35.5v-125q0 -14 -9 -22t-22 -8t-22 8t-9 22v125q-111 5 -227 56q-64 27 -86 24q-15 -2 -25 -13.5t-14 -24t-12.5 -23t-22.5 -10.5q-22 0 -22 30zM260 1092q0 -49 22.5 -91.5t60 -72t79 -50.5t88.5 -34q2 0 9.5 -3.5t12.5 -4.5v516q-123 -5 -197.5 -72.5 t-74.5 -187.5zM594 31q129 5 215 80.5t86 203.5q0 152 -160 242q-56 29 -141 53v-579z" />
<glyph unicode="%" horiz-adv-x="1660" d="M164 1096q0 107 68.5 186.5t162.5 79.5q86 0 168.5 -14.5t132.5 -31.5t105 -28t98 -6q37 4 57 24.5t31 57.5q9 29 37 22q27 -7 20 -36l-360 -1346q-9 -29 -37 -22q-27 7 -20 36l336 1252q-40 -34 -99 -42t-127 15q-27 10 -64.5 29t-77.5 34t-101 29q59 -33 96 -98 t37 -141q0 -107 -69 -187t-163 -80t-162.5 80t-68.5 187zM260 1096q0 -46 4.5 -82t17.5 -74t41.5 -59t71.5 -21q79 0 106 57.5t27 178.5q0 48 -5 85t-18 73.5t-41 56.5t-69 20t-69 -19.5t-42 -55.5t-19 -74t-5 -86zM1034 246q0 107 68.5 186.5t163.5 79.5q94 0 162.5 -79.5 t68.5 -186.5t-68.5 -186.5t-162.5 -79.5q-95 0 -163.5 79.5t-68.5 186.5zM1130 246q0 -36 2.5 -65t11 -62.5t22.5 -56t39.5 -37.5t60.5 -15q79 0 106 57.5t27 178.5q0 48 -5 85t-18 73.5t-41 56.5t-69 20q-136 0 -136 -235z" />
<glyph unicode="&#x26;" horiz-adv-x="1611" d="M123 395q0 148 86 263t227 184q-49 28 -84.5 64.5t-53.5 74t-26 70t-8 63.5q0 129 99 214t231 85q157 0 227 -69t70 -177q0 -87 -72.5 -169.5t-167.5 -116.5q121 -83 210.5 -204.5t172.5 -316.5l283 459h-123q-25 0 -25 21q0 20 25 20h332q24 0 24 -20q0 -21 -24 -21 h-107q-37 0 -55 -24l-307 -488q13 -42 30.5 -79.5t45.5 -78t68.5 -64.5t88.5 -24t84.5 23t83.5 74q14 15 25.5 9t1.5 -24q-52 -88 -131 -131t-158 -43q-104 0 -165.5 46t-96.5 132q-164 -178 -402 -178q-184 0 -296.5 119t-112.5 307zM287 430q-9 -162 84.5 -275.5 t242.5 -113.5q74 0 157.5 47t139.5 127q-91 227 -187.5 362.5t-236.5 233.5q-85 -59 -139.5 -164t-60.5 -217zM414 1188q0 -44 14.5 -88t59.5 -97t116 -90q67 39 124.5 103.5t64.5 142.5q3 28 -0.5 55.5t-15.5 56.5t-32 51t-53.5 36t-77.5 14q-88 0 -144 -57.5t-56 -126.5z " />
<glyph unicode="'" horiz-adv-x="466" d="M166 1296q-4 35 16 55.5t51 20.5t51.5 -20.5t16.5 -55.5q-45 -360 -51 -399q-3 -16 -17 -16q-13 0 -16 16q-6 39 -51 399z" />
<glyph unicode="(" horiz-adv-x="649" d="M164 522q0 547 383 905q17 14 31 3q17 -13 4 -29q-102 -113 -171.5 -234t-112 -286.5t-42.5 -358.5q0 -283 84.5 -494t241.5 -384q13 -16 -4 -29q-15 -11 -31 2q-383 358 -383 905z" />
<glyph unicode=")" horiz-adv-x="649" d="M68 -356q156 172 240.5 383.5t84.5 494.5t-84.5 495t-240.5 384q-13 16 4 29q14 10 30 -3q383 -358 383 -905t-383 -905q-16 -13 -30 -2q-17 13 -4 29z" />
<glyph unicode="*" horiz-adv-x="905" d="M164 1122q0 22 14 37t35 15q7 0 22 -3.5t56.5 -11t103.5 -14.5q-49 39 -84.5 65t-46.5 34t-16 13q-15 15 -15 35t15 35q14 15 34 16t35 -14q4 -5 12.5 -18.5t33.5 -48t65 -84.5q-7 65 -13.5 108t-9 57t-2.5 21q0 22 14 35.5t36 13.5t36.5 -13t14.5 -36q0 -8 -2.5 -22.5 t-9.5 -58.5t-15 -105q39 49 63.5 84t33 48t14.5 19q15 15 34.5 15t34.5 -15q16 -16 16.5 -35t-16.5 -37q-5 -6 -16.5 -13.5t-47.5 -33.5t-87 -67q64 7 105.5 15t56 12t22.5 4q22 0 36.5 -15t14.5 -37t-14.5 -35.5t-36.5 -13.5q-7 0 -21.5 2.5t-57 9t-103.5 13.5 q49 -39 82.5 -63t46.5 -32t18 -12q15 -15 15 -36.5t-15 -34.5q-15 -15 -35.5 -15t-35.5 15q-5 5 -11 13l-15 20t-31 41.5t-50 66.5q6 -60 13 -99.5t10.5 -54t3.5 -20.5q0 -22 -14.5 -36.5t-36.5 -14.5t-36 14.5t-14 36.5q0 7 2.5 20.5t9 55.5t13.5 104q-39 -50 -63.5 -84.5 t-31.5 -46.5t-11 -16q-15 -15 -37 -15t-37 15t-14 35.5t16 35.5q4 4 15 11.5t44.5 32.5t81.5 63q-48 -5 -85 -10.5t-52 -8t-25 -4.5t-16 -2q-22 0 -35.5 13.5t-13.5 35.5z" />
<glyph unicode="+" horiz-adv-x="1198" d="M164 502q0 13 8.5 21.5t22.5 8.5h374v390q0 14 9 22t22 8t22 -8t9 -22v-390h373q14 0 22 -8.5t8 -21.5t-8 -22t-22 -9h-373v-358q0 -14 -9 -22.5t-22 -8.5t-22 8.5t-9 22.5v358h-374q-14 0 -22.5 9t-8.5 22z" />
<glyph unicode="," horiz-adv-x="571" d="M164 86q0 43 28.5 75.5t79.5 35.5q69 0 102.5 -48.5t33.5 -125.5q0 -58 -16.5 -114t-62 -107.5t-114.5 -67.5q-19 -4 -22 12q-3 17 16 21q39 10 75 40.5t56 79.5q19 46 19.5 96t-11.5 64q-9 -28 -32 -44.5t-52 -16.5q-43 0 -71.5 30.5t-28.5 69.5z" />
<glyph unicode="-" horiz-adv-x="1054" d="M164 502q0 13 8.5 21.5t22.5 8.5h665q14 0 22.5 -8.5t8.5 -21.5t-8.5 -22t-22.5 -9h-665q-14 0 -22.5 9t-8.5 22z" />
<glyph unicode="." horiz-adv-x="546" d="M164 88q0 46 33 78.5t77 32.5t76.5 -32.5t32.5 -78.5q0 -45 -32 -76.5t-77 -31.5t-77.5 31.5t-32.5 76.5z" />
<glyph unicode="/" horiz-adv-x="749" d="M166 18l360 1346q9 29 37 22q27 -7 21 -36l-361 -1346q-9 -29 -37 -22q-27 7 -20 36z" />
<glyph unicode="0" horiz-adv-x="1271" d="M123 692q0 137 32.5 264t94.5 230t161.5 165t223.5 62t224 -62t162 -165t95 -230t33 -264q0 -109 -20 -212.5t-62.5 -196.5t-102.5 -162.5t-145 -110.5t-184 -41t-184 41t-144.5 110.5t-101.5 162.5t-62 196.5t-20 212.5zM313 692q0 -350 70.5 -505.5t251.5 -155.5 q174 0 247.5 158t73.5 503t-73.5 502.5t-247.5 157.5q-181 0 -251.5 -155t-70.5 -505z" />
<glyph unicode="1" horiz-adv-x="788" d="M84 1225q-2 10 3.5 16.5t8.5 7t13 2.5q233 63 362 156q9 7 17 6.5t8 -8.5v-1333q0 -12 9 -21.5t21 -9.5h160q9 0 15 -6t6 -15q0 -20 -21 -20h-543q-20 0 -20 20q0 21 20 21h158q12 0 21.5 9.5t9.5 21.5v1177q0 28 -25 19q-144 -52 -190 -60q-29 -6 -33 17z" />
<glyph unicode="2" horiz-adv-x="1097" d="M82.5 14.5q-4.5 14.5 9.5 26.5l180 170q149 140 241 248t140 204.5t64 176t16 184.5q0 147 -64.5 237.5t-176.5 90.5q-107 0 -170.5 -48t-69.5 -126q0 -82 -66 -82q-26 0 -43 17.5t-14 53.5q9 98 121 172t244 74q194 0 310 -98t116 -291q0 -68 -19.5 -132.5t-51 -123 t-98 -139.5t-132.5 -151.5t-183 -190.5l-139 -144h563q11 0 16.5 1t13 8.5t11.5 21.5l31 113q6 20 22 20q22 0 19 -26l-27 -261q-3 -20 -20 -20h-822q-17 0 -21.5 14.5z" />
<glyph unicode="3" horiz-adv-x="1034" d="M82 215q0 36 19 54t46 18q64 0 64 -82q0 -78 64 -126t176 -48q81 0 136.5 26t85.5 77t42 112t12 143q0 100 -37.5 177t-102 116.5t-150.5 47t-183 -31.5q-12 -5 -23 0.5t-12 18.5q-3 22 18 39.5t60 21.5q93 11 158.5 31t120.5 58.5t82.5 103t27.5 155.5q0 117 -61 171.5 t-164 54.5q-68 0 -118 -36.5t-50 -107.5q0 -82 -64 -82q-27 0 -46 18t-19 54q0 98 93.5 156.5t234.5 58.5q179 0 273.5 -79t94.5 -208q0 -111 -69 -198t-175 -129q-8 -3 -73 -25v-2q54 -6 106 -27q114 -45 188 -137t74 -209q0 -187 -130.5 -308.5t-329.5 -121.5 q-91 0 -176.5 33.5t-139 90.5t-53.5 122z" />
<glyph unicode="4" horiz-adv-x="1148" d="M42.5 444q-3.5 6 2.5 15l733 930q16 24 37 24q11 0 18 -7t7 -17v-887h194q14 0 23.5 -10t9.5 -23t-9.5 -22t-23.5 -9h-194v-366q0 -12 9 -21.5t21 -9.5h140q20 0 20 -21q0 -20 -20 -20h-502q-21 0 -21 20q0 9 6 15t15 6h137q12 0 21.5 9.5t9.5 21.5v366h-621 q-9 0 -12.5 6zM164 502h512v645z" />
<glyph unicode="5" horiz-adv-x="1054" d="M82 215q0 36 19 54t46 18q64 0 64 -82q0 -78 66 -126t178 -48q81 0 140.5 32.5t92.5 89t48.5 122.5t15.5 143q0 76 -13.5 140.5t-43 120.5t-84.5 88t-130 32q-76 0 -157 -36t-146 -110q-9 -11 -22.5 -11t-22.5 11q-13 13 -2 41t41 54q19 16 23 51l51 563q3 20 20 20h525 q11 0 16.5 1t12.5 8.5t11 21.5l31 113q6 20 23 20q21 0 18 -26l-26 -260q-3 -21 -21 -21h-565l-39 -451h4q103 72 246 72q201 0 315.5 -124t114.5 -316q0 -126 -66 -230t-176 -162.5t-239 -58.5q-91 0 -176.5 33.5t-139 90.5t-53.5 122z" />
<glyph unicode="6" horiz-adv-x="1126" d="M123 553q0 92 16.5 189.5t47.5 194t80.5 182.5t111 151.5t143.5 104t174 38.5q96 0 165 -59.5t69 -155.5q0 -36 -18 -54t-44 -18q-61 0 -61 82q0 73 -35.5 108.5t-95.5 35.5q-120 0 -205 -86.5t-126 -237t-40 -352.5h4q39 66 116 104.5t159 38.5q175 0 297.5 -124 t122.5 -296q0 -176 -125.5 -303t-305.5 -127q-89 0 -164.5 34.5t-127 92t-88 133.5t-53.5 158t-17 166zM303 449q0 -63 5 -114.5t21.5 -110.5t44.5 -99t79 -67t120 -27q55 0 97 14.5t68 43t43 60.5t25 78t10.5 83.5t2.5 88.5q0 56 -5 102.5t-20 96t-40 83t-68.5 55.5 t-101.5 22q-142 0 -211.5 -84.5t-69.5 -224.5z" />
<glyph unicode="7" horiz-adv-x="960" d="M104 1102l27 260q3 20 21 20h712q19 0 10 -20l-532 -1358q-4 -11 -7 -15.5t-13 -9.5t-25 1q-23 6 -28 17.5t3 31.5l473 1210h-528q-11 0 -16.5 -1t-13 -8.5t-11.5 -21.5l-31 -112q-6 -21 -22 -21q-22 0 -19 27z" />
<glyph unicode="8" horiz-adv-x="1138" d="M125 338q-3 133 94.5 239.5t249.5 145.5q-50 20 -95 49.5t-87 71.5t-67.5 99.5t-26.5 121.5q-1 150 114 249t273 99q79 0 148 -19.5t123 -57.5t85 -99.5t31 -138.5q0 -113 -78 -194.5t-199 -123.5q140 -56 230.5 -158t93.5 -243q3 -180 -125.5 -295t-317.5 -115 q-192 0 -318.5 103t-127.5 266zM297 358q3 -142 74.5 -234.5t197.5 -92.5q130 0 202 88.5t69 238.5q-1 114 -83.5 196.5t-221.5 131.5q-104 -32 -171.5 -125t-66.5 -203zM352 1100q1 -64 21.5 -112t61 -81.5t80 -54t101.5 -43.5q103 37 149 116.5t46 178.5q0 53 -12.5 96 t-38.5 78t-71.5 54.5t-106.5 19.5q-56 0 -100 -20t-68 -49t-39 -65.5t-19.5 -65t-3.5 -52.5z" />
<glyph unicode="9" horiz-adv-x="1126" d="M123 983q0 176 125 303t305 127q89 0 164.5 -34.5t127.5 -92t88.5 -133.5t53.5 -158t17 -166q0 -92 -16.5 -189.5t-48 -194t-81 -182.5t-111 -151.5t-143.5 -104t-174 -38.5q-96 0 -164.5 59.5t-68.5 155.5q0 36 17.5 54t43.5 18q61 0 61 -82q0 -73 35.5 -108t96.5 -35 q120 0 205 86.5t125.5 237t39.5 352.5h-4q-39 -66 -115.5 -105t-158.5 -39q-175 0 -297.5 124t-122.5 296zM307 983q0 -358 236 -358q142 0 211 84.5t69 224.5q0 63 -5 114.5t-21.5 110.5t-44.5 99t-79 67t-120 27q-55 0 -97 -14.5t-68 -43t-43 -61t-25 -78.5t-10.5 -83.5 t-2.5 -88.5z" />
<glyph unicode=":" horiz-adv-x="546" d="M164 88q0 46 33 78.5t77 32.5t76.5 -32.5t32.5 -78.5q0 -45 -32 -76.5t-77 -31.5t-77.5 31.5t-32.5 76.5zM164 647q0 45 33 78t77 33t76.5 -32.5t32.5 -78.5q0 -45 -32 -76.5t-77 -31.5t-77.5 31.5t-32.5 76.5z" />
<glyph unicode=";" horiz-adv-x="571" d="M164 86q0 -39 28.5 -69.5t71.5 -30.5q29 0 52 16.5t32 44.5q12 -14 11.5 -64t-19.5 -96q-20 -49 -56 -79.5t-75 -40.5q-19 -4 -16 -21q3 -16 22 -12q69 16 114.5 67.5t62 107.5t16.5 114q0 77 -33.5 125.5t-102.5 48.5q-51 -3 -79.5 -35.5t-28.5 -75.5zM182 647 q0 45 33 78t78 33q44 0 76 -32.5t32 -78.5q0 -45 -31.5 -76.5t-76.5 -31.5t-78 31.5t-33 76.5z" />
<glyph unicode="&#x3c;" horiz-adv-x="1161" d="M164 520q0 16 14 23l766 399q33 16 47 -4q8 -9 4.5 -23.5t-16.5 -21.5l-676 -373l676 -373q13 -7 16.5 -21.5t-4.5 -23.5q-14 -20 -47 -4l-766 400q-14 7 -14 22z" />
<glyph unicode="=" horiz-adv-x="1095" d="M164 358q0 13 8.5 22t22.5 9h706q14 0 22.5 -9t8.5 -22t-8.5 -21.5t-22.5 -8.5h-706q-14 0 -22.5 8.5t-8.5 21.5zM164 645q0 13 8.5 22t22.5 9h706q14 0 22.5 -9t8.5 -22t-8.5 -22t-22.5 -9h-706q-14 0 -22.5 9t-8.5 22z" />
<glyph unicode="&#x3e;" horiz-adv-x="1161" d="M165.5 125.5q3.5 14.5 16.5 21.5l676 373l-676 373q-13 7 -16.5 21.5t4.5 23.5q14 20 47 4l766 -399q14 -7 14 -23q0 -15 -14 -22l-766 -400q-33 -16 -47 4q-8 9 -4.5 23.5z" />
<glyph unicode="?" horiz-adv-x="1040" d="M168 543q-21 183 69.5 260.5t297.5 77.5q65 0 114 7.5t94 26.5t69 57t24 93q0 44 -11.5 77.5t-29.5 54.5t-46 35t-54 20t-60 8t-58.5 1t-55.5 -2.5t-44 -1.5q-82 0 -82 62q0 50 72 61q35 6 73.5 6t87 -7t91 -29.5t79 -58t58 -96.5t21.5 -140q0 -338 -365 -338 q-159 0 -229.5 -53.5t-49.5 -178.5q3 -18 8.5 -35t10.5 -30t15.5 -29.5t16 -25t19.5 -25.5t19 -23t22 -24.5t21 -22.5q15 -15 2 -28q-12 -12 -29 -2q-64 42 -112 126.5t-58 176.5zM356 88q0 45 33 78t78 33q44 0 76 -32.5t32 -78.5q0 -45 -31.5 -76.5t-76.5 -31.5t-78 31.5 t-33 76.5z" />
<glyph unicode="@" horiz-adv-x="1761" d="M164 356q0 156 64.5 297.5t172.5 243t254.5 161.5t305.5 60q128 0 243 -40.5t202.5 -113t139 -181.5t51.5 -238q0 -87 -30 -181t-81.5 -174.5t-132 -133t-171.5 -52.5q-61 0 -103 43t-47 103q-32 -66 -95.5 -108t-133.5 -42q-83 0 -142.5 45t-84.5 113.5t-24.5 147.5 t28.5 149q54 139 162.5 230t242.5 91q126 0 160 -119h4l82 97q14 14 22 14q9 0 14.5 -5.5t4.5 -14.5q-79 -320 -117 -500q-36 -178 76 -178q81 0 155 79.5t115 188.5t41 205q0 109 -37 196q-61 150 -204 233t-320 83q-141 0 -272 -55.5t-226.5 -149t-153 -222.5t-57.5 -270 q0 -199 98.5 -346.5t276.5 -218.5q114 -47 268 -47q131 0 246 35q119 36 254 125q9 6 18.5 4t14.5 -10q10 -17 -8 -31q-88 -64 -180 -107q-85 -39 -168 -55.5t-195 -21.5q-292 -3 -508 182q-225 191 -225 489zM695 321.5q-5 -55.5 1.5 -115.5t41.5 -99t96 -39q58 0 98 36 t76 99q34 70 86 305q19 77 2 124t-44.5 67t-60.5 20q-126 0 -217 -150q-41 -71 -61 -143q-13 -49 -18 -104.5z" />
<glyph unicode="A" d="M0 20q0 21 20 21h103q46 0 55 25l488 1306q16 41 41 41q27 0 43 -41l483 -1306q9 -25 55 -25h103q20 0 20 -21q0 -20 -20 -20h-523q-20 0 -20 20q0 21 20 21h176l-174 471h-469l-176 -471h178q9 0 15 -6t6 -15q0 -20 -21 -20h-383q-20 0 -20 20zM420 563h432l-213 584z " />
<glyph unicode="B" horiz-adv-x="1249" d="M92 20q0 9 6 15t15 6h147q12 0 21.5 9.5t9.5 21.5v1239q0 12 -9.5 21t-21.5 9h-147q-9 0 -15 6t-6 15q0 20 21 20h563q117 0 208.5 -33t149.5 -107.5t58 -182.5q0 -117 -91 -205t-210 -106v-3q49 -5 114 -26q117 -41 189.5 -129.5t72.5 -206.5q0 -188 -133 -285.5 t-368 -97.5h-553q-21 0 -21 20zM475 72q0 -12 9.5 -21.5t21.5 -9.5h108q179 0 261.5 80.5t82.5 263.5q0 153 -74 239.5t-210 86.5h-199v-639zM475 754h150q127 0 194.5 70t67.5 233q0 157 -75 220.5t-216 63.5h-90q-12 0 -21.5 -9t-9.5 -21v-557z" />
<glyph unicode="C" horiz-adv-x="1290" d="M92 692q0 134 46 263.5t127 231t202 164t260 62.5q54 0 138 -19t159 -63q6 -3 17 -9.5t16.5 -9.5t13.5 -6t16.5 -4.5t18.5 -1.5q21 0 33 16t15.5 35.5t12 35.5t21.5 16q20 0 20 -31v-420q0 -30 -24 -30q-12 0 -19.5 9t-7.5 21q0 192 -120 296t-310 104q-78 0 -140.5 -20 t-106 -53t-76 -84t-51.5 -105t-30.5 -124t-15.5 -133.5t-4 -140.5t4 -140.5t15.5 -133.5t30.5 -124.5t51.5 -105t76 -84t106 -53.5t140.5 -20q190 0 310 103.5t120 295.5q0 12 7.5 21.5t19.5 9.5q24 0 24 -31v-420q0 -30 -20 -30q-13 0 -21.5 16t-12 35t-15.5 35t-33 16 q-13 0 -24.5 -3t-16 -5t-20.5 -11t-21 -12q-75 -44 -159 -63t-138 -19q-112 0 -213 40.5t-176.5 111t-131.5 162t-85 197t-29 212.5z" />
<glyph unicode="D" horiz-adv-x="1472" d="M92 20q0 9 6 15t15 6h147q12 0 21.5 9.5t9.5 21.5v1239q0 12 -9.5 21t-21.5 9h-147q-9 0 -15 6t-6 15q0 20 21 20h522q187 0 331.5 -52t234 -145.5t134.5 -217t45 -271.5q0 -149 -45.5 -273.5t-134.5 -220t-233.5 -149t-331.5 -53.5h-522q-21 0 -21 20zM475 72 q0 -12 9.5 -21.5t21.5 -9.5h129q532 0 532 655q0 116 -16 210.5t-54.5 177t-98.5 138.5t-152 87.5t-211 31.5h-129q-12 0 -21.5 -9t-9.5 -21v-1239z" />
<glyph unicode="E" horiz-adv-x="1280" d="M92 20q0 9 6 15t15 6h147q12 0 21.5 9.5t9.5 21.5v1239q0 12 -9.5 21t-21.5 9h-147q-9 0 -15 6t-6 15q0 20 21 20h1003q21 0 21 -20v-307q0 -13 -7 -22t-18 -9q-12 0 -19.5 9.5t-7.5 21.5q0 145 -77 215.5t-209 70.5h-293q-12 0 -21.5 -9t-9.5 -21v-568h68q69 0 113 8 t81 31.5t53.5 70t16.5 120.5q0 12 7.5 21.5t19.5 9.5q24 0 24 -31l2 -492q0 -30 -24 -30q-12 0 -19.5 9t-7.5 21q0 59 -12.5 100t-32 64t-56 35.5t-72.5 16t-93 3.5h-68v-628q0 -12 9.5 -21.5t21.5 -9.5h334q131 0 212 70.5t99 216.5q4 30 25 30q22 0 22 -30l-20 -308 q0 -20 -21 -20h-1044q-21 0 -21 20z" />
<glyph unicode="F" horiz-adv-x="1198" d="M92 20q0 9 6 15t15 6h147q12 0 21.5 9.5t9.5 21.5v1239q0 12 -9.5 21t-21.5 9h-147q-9 0 -15 6t-6 15q0 20 21 20h1003q21 0 21 -20v-307q0 -13 -7 -22t-18 -9q-12 0 -19.5 9.5t-7.5 21.5q0 145 -77 215.5t-209 70.5h-293q-12 0 -21.5 -9t-9.5 -21v-568h68q69 0 113 8 t81 31.5t53.5 70t16.5 120.5q0 12 7.5 21.5t19.5 9.5q24 0 24 -31l2 -492q0 -30 -24 -30q-12 0 -19.5 9t-7.5 21q0 59 -12.5 100t-32 64t-56 35.5t-72.5 16t-93 3.5h-68v-628q0 -12 9.5 -21.5t21.5 -9.5h149q9 0 15 -6t6 -15q0 -20 -21 -20h-542q-21 0 -21 20z" />
<glyph unicode="G" horiz-adv-x="1433" d="M92 692q0 134 46 263.5t127 231t202 164t260 62.5q54 0 138 -19t159 -63q6 -3 17 -9.5t16.5 -9.5t13.5 -6t16.5 -4.5t18.5 -1.5q21 0 33 16t15.5 35.5t12 35.5t21.5 16q20 0 20 -31v-420q0 -30 -24 -30q-12 0 -19.5 9t-7.5 21q0 192 -120 296t-310 104q-78 0 -140.5 -20 t-106 -53t-76 -84t-51.5 -105t-30.5 -124t-15.5 -133.5t-4 -140.5t4 -140.5t15.5 -133.5t30.5 -124.5t51.5 -105t76 -84t106 -53.5t140.5 -20q137 0 239.5 91t102.5 226v195q0 12 -9.5 21t-21.5 9h-147q-9 0 -15 6t-6 15q0 20 21 20h502q20 0 20 -20q0 -21 -20 -21h-109 q-12 0 -21.5 -9t-9.5 -21v-267q0 -12 9.5 -21t21.5 -9q9 0 15 -6t6 -15q0 -20 -21 -20q-59 0 -79 -5t-38 -26q-46 -54 -104 -95t-106.5 -61t-100.5 -32t-79 -14.5t-50 -2.5q-112 0 -213 40.5t-176.5 111t-131.5 162t-85 197t-29 212.5z" />
<glyph unicode="H" horiz-adv-x="1566" d="M92 20q0 9 6 15t15 6h147q12 0 21.5 9.5t9.5 21.5v1239q0 12 -9.5 21t-21.5 9h-147q-9 0 -15 6t-6 15q0 20 21 20h542q21 0 21 -20q0 -9 -6 -15t-15 -6h-149q-12 0 -21.5 -9t-9.5 -21v-574h615v574q0 12 -9.5 21t-21.5 9h-148q-20 0 -20 21q0 20 20 20h543q21 0 21 -20 q0 -9 -6 -15t-15 -6h-149q-12 0 -21.5 -9t-9.5 -21v-1239q0 -12 9.5 -21.5t21.5 -9.5h149q9 0 15 -6t6 -15q0 -20 -21 -20h-543q-20 0 -20 20q0 21 20 21h148q12 0 21.5 9.5t9.5 21.5v614h-615v-614q0 -12 9.5 -21.5t21.5 -9.5h149q9 0 15 -6t6 -15q0 -20 -21 -20h-542 q-21 0 -21 20z" />
<glyph unicode="I" horiz-adv-x="768" d="M92 20q0 9 6 15t15 6h147q12 0 21.5 9.5t9.5 21.5v1239q0 12 -9.5 21t-21.5 9h-147q-9 0 -15 6t-6 15q0 20 21 20h542q21 0 21 -20q0 -9 -6 -15t-15 -6h-149q-12 0 -21.5 -9t-9.5 -21v-1239q0 -12 9.5 -21.5t21.5 -9.5h149q9 0 15 -6t6 -15q0 -20 -21 -20h-542 q-21 0 -21 20z" />
<glyph unicode="J" horiz-adv-x="737" d="M-13 -275q-2 8 -2 16q0 25 21 48q19 19 50 15.5t50 -33.5q3 -4 12 -21t16 -27t18 -22.5t24.5 -17t28.5 -0.5q20 6 35.5 25t24.5 53.5t14.5 68t8 87t3 89.5t0.5 96v1209q0 12 -9.5 21t-21.5 9h-147q-9 0 -15 6t-6 15q0 20 21 20h542q21 0 21 -20q0 -9 -6 -15t-15 -6h-149 q-12 0 -21.5 -9t-9.5 -21v-1229q0 -111 -31 -201t-80.5 -143t-109.5 -81q-51 -24 -103 -24q-8 0 -17 1q-60 4 -109 38q-29 19 -38 53z" />
<glyph unicode="K" horiz-adv-x="1400" d="M92 20q0 9 6 15t15 6h147q12 0 21.5 9.5t9.5 21.5v1239q0 12 -9.5 21t-21.5 9h-147q-9 0 -15 6t-6 15q0 20 21 20h542q21 0 21 -20q0 -9 -6 -15t-15 -6h-149q-12 0 -21.5 -9t-9.5 -21v-596l563 626h-164q-20 0 -20 21q0 20 20 20h379q21 0 21 -20q0 -9 -6 -15t-15 -6 h-123q-25 0 -45 -24l-467 -526l623 -725q21 -25 41 -25h98q9 0 15 -6t6 -15q0 -20 -21 -20h-512q-20 0 -20 20q0 21 20 21h156l-549 643v-612q0 -12 9.5 -21.5t21.5 -9.5h149q9 0 15 -6t6 -15q0 -20 -21 -20h-542q-21 0 -21 20z" />
<glyph unicode="L" horiz-adv-x="1228" d="M92 20q0 9 6 15t15 6h147q12 0 21.5 9.5t9.5 21.5v1239q0 12 -9.5 21t-21.5 9h-147q-9 0 -15 6t-6 15q0 20 21 20h540q21 0 21 -20q0 -9 -6 -15t-15 -6h-147q-12 0 -21.5 -9t-9.5 -21v-1239q0 -12 9.5 -21.5t21.5 -9.5h334q131 0 212 70.5t99 216.5q4 30 25 30 q22 0 22 -30l-20 -308q0 -20 -21 -20h-1044q-21 0 -21 20z" />
<glyph unicode="M" horiz-adv-x="1726" d="M72 20q0 21 20 21h150q12 0 21 9.5t9 21.5v1239q0 12 -9 21t-21 9h-150q-20 0 -20 21q0 20 20 20h350q18 0 25 -20l383 -1073h2l389 1073q7 20 25 20h348q20 0 20 -20q0 -21 -20 -21h-150q-12 0 -21 -9t-9 -21v-1239q0 -12 9 -21.5t21 -9.5h150q20 0 20 -21 q0 -20 -20 -20h-543q-20 0 -20 20q0 21 20 21h148q12 0 21 9.5t9 21.5v1157h-4l-430 -1209q-13 -40 -33 -40q-21 0 -34 40l-420 1205h-4v-1153q0 -12 9 -21.5t21 -9.5h148q20 0 20 -21q0 -20 -20 -20h-410q-20 0 -20 20z" />
<glyph unicode="N" horiz-adv-x="1413" d="M72 20q0 21 20 21h150q12 0 21 9.5t9 21.5v1239q0 12 -9 21t-21 9h-150q-20 0 -20 21q0 20 20 20h332q21 0 31 -20l641 -1032h4v981q0 12 -9.5 21t-21.5 9h-147q-9 0 -15 6t-6 15q0 20 21 20h409q21 0 21 -20q0 -9 -6 -15t-15 -6h-149q-12 0 -21.5 -9t-9.5 -21v-1311 q0 -20 -21 -20q-20 0 -30 20l-772 1225h-4v-1153q0 -12 9 -21.5t21 -9.5h148q20 0 20 -21q0 -20 -20 -20h-410q-20 0 -20 20z" />
<glyph unicode="O" horiz-adv-x="1456" d="M92 692q0 134 46 263.5t127 231t202 164t260 62.5t260.5 -62.5t202.5 -164t127.5 -231t46.5 -263.5q0 -107 -29 -212.5t-85.5 -197t-132.5 -162t-177 -111t-213 -40.5t-213 40.5t-176.5 111t-131.5 162t-85 197t-29 212.5zM303 692q0 -77 4 -140.5t15.5 -133.5 t30.5 -124.5t51.5 -105t76 -84t106 -53.5t140.5 -20q104 0 181.5 38.5t123 99t73 150t37 177.5t9.5 196q0 89 -7 163.5t-23.5 152.5t-47.5 137.5t-76.5 107.5t-114 73.5t-155.5 25.5q-78 0 -140.5 -20t-106 -53t-76 -84t-51.5 -105t-30.5 -124t-15.5 -133.5t-4 -140.5z" />
<glyph unicode="P" horiz-adv-x="1218" d="M92 20q0 9 6 15t15 6h147q12 0 21.5 9.5t9.5 21.5v1239q0 12 -9.5 21t-21.5 9h-147q-9 0 -15 6t-6 15q0 20 21 20h512q79 0 150.5 -12.5t136.5 -41.5t112 -71.5t74.5 -107.5t27.5 -145q0 -129 -69 -218.5t-182.5 -130.5t-260.5 -41h-139v-542q0 -12 9.5 -21.5t21.5 -9.5 h149q9 0 15 -6t6 -15q0 -20 -21 -20h-542q-21 0 -21 20zM475 655h119q317 0 317 349q0 175 -80 256t-237 81h-88q-12 0 -21.5 -9t-9.5 -21v-656z" />
<glyph unicode="Q" horiz-adv-x="1466" d="M92 692q0 134 46 263.5t127 231t202 164t260 62.5t260.5 -62.5t202.5 -164t127.5 -231t46.5 -263.5q0 -187 -85 -357.5t-232 -268.5h15q66 0 116 -25q23 -11 65 -43.5t80.5 -64t89.5 -59t94 -32.5q17 -2 34 -2q87 0 145 58q2 2 8 8.5t8 8.5t8 6t8 3t8 -2q5 -3 5 -10 q0 -11 -15 -33q-48 -67 -79 -95q-79 -71 -183 -71q-74 0 -138.5 21t-112.5 54t-87.5 67.5t-80.5 67t-74 46.5q-43 19 -80 19q-12 0 -23 -2q-91 -17 -131 -17q-112 0 -213 40.5t-176.5 111t-131.5 162t-85 197t-29 212.5zM303 692q0 -77 4 -140.5t15.5 -133.5t30.5 -124.5 t51.5 -105t76 -84t106 -53.5t140.5 -20q104 0 181.5 38.5t123 99t73 150t37 177.5t9.5 196q0 89 -7 163.5t-23.5 152.5t-47.5 137.5t-76.5 107.5t-114 73.5t-155.5 25.5q-78 0 -140.5 -20t-106 -53t-76 -84t-51.5 -105t-30.5 -124t-15.5 -133.5t-4 -140.5z" />
<glyph unicode="R" horiz-adv-x="1341" d="M92 20q0 9 6 15t15 6h147q12 0 21.5 9.5t9.5 21.5v1239q0 12 -9.5 21t-21.5 9h-147q-9 0 -15 6t-6 15q0 20 21 20h512q80 0 150.5 -11.5t136 -39t112 -68.5t74.5 -105t28 -144q0 -147 -84 -236.5t-213 -120.5v-2q30 -11 121 -174l232 -415q12 -25 41 -25h77q9 0 15 -6 t6 -15q0 -20 -21 -20h-276q-19 0 -29 20l-268 564q-10 19 -21.5 30t-27.5 15.5t-24.5 5t-28.5 0.5h-150v-563q0 -12 9.5 -21.5t21.5 -9.5h149q9 0 15 -6t6 -15q0 -20 -21 -20h-542q-21 0 -21 20zM475 676h119q157 0 237 81.5t80 256.5q0 174 -79 250.5t-238 76.5h-88 q-12 0 -21.5 -9t-9.5 -21v-635z" />
<glyph unicode="S" horiz-adv-x="1167" d="M123 10v338q0 12 7.5 21.5t19.5 9.5t19 -9t7 -22q0 -51 26 -114t64 -101q102 -102 312 -102q135 0 226 75.5t91 208.5q0 152 -160 242q-20 11 -40.5 19.5t-51 18t-41.5 13t-51.5 14t-42.5 11.5q-191 53 -281 149q-94 97 -94 244q0 165 121 276t299 111q83 0 174 -35 q11 -5 33.5 -18t41 -21t34.5 -8q15 0 24.5 11.5t13.5 24.5t12.5 24.5t22.5 11.5q23 0 23 -31v-338q0 -12 -7.5 -21t-19.5 -9t-19 9t-7 21q0 51 -25.5 117t-60.5 104q-85 97 -242 97q-130 0 -210.5 -68t-80.5 -192q0 -49 22.5 -91.5t60 -72t79 -50.5t88.5 -34 q31 -10 98 -30.5t116 -37.5t95 -37q104 -46 164.5 -132.5t60.5 -203.5q0 -102 -39.5 -185.5t-106 -137t-153 -82.5t-182.5 -29q-128 0 -258 58q-58 24 -81 24h-5q-15 -2 -25 -13.5t-14 -24t-12.5 -23t-22.5 -10.5q-22 0 -22 30z" />
<glyph unicode="T" horiz-adv-x="1282" d="M61 1055l21 307q0 20 20 20h1078q20 0 20 -20l21 -307q0 -13 -7 -22t-18 -9q-23 0 -27 31q-15 148 -86 217t-200 69h-119q-12 0 -21.5 -9t-9.5 -21v-1239q0 -12 9.5 -21.5t21.5 -9.5h149q9 0 15 -6t6 -15q0 -20 -21 -20h-542q-21 0 -21 20q0 9 6 15t15 6h147 q12 0 21.5 9.5t9.5 21.5v1239q0 12 -9.5 21t-21.5 9h-119q-129 0 -200 -69t-86 -217q-4 -31 -27 -31q-11 0 -18 9t-7 22z" />
<glyph unicode="U" horiz-adv-x="1462" d="M72 1362q0 20 20 20h543q20 0 20 -20q0 -21 -20 -21h-150q-12 0 -21 -9t-9 -21v-869q0 -56 1.5 -90t8 -85t23 -89t42.5 -65q79 -82 244 -82q201 0 301 133q45 60 58.5 134.5t13.5 184.5v828q0 12 -9.5 21t-21.5 9h-147q-9 0 -15 6t-6 15q0 20 21 20h411q21 0 21 -20 q0 -9 -6 -15t-15 -6h-149q-12 0 -21.5 -9t-9.5 -21v-860q0 -223 -100 -338q-68 -77 -157.5 -110.5t-207.5 -33.5q-228 0 -350 119q-115 112 -115 318v905q0 12 -9 21t-21 9h-148q-20 0 -20 21z" />
<glyph unicode="V" d="M-20 1362q0 20 20 20h522q21 0 21 -20q0 -9 -6 -15t-15 -6h-176l406 -1105l413 1105h-178q-20 0 -20 21q0 20 20 20h383q21 0 21 -20q0 -9 -6 -15t-15 -6h-102q-47 0 -56 -24l-487 -1307q-16 -41 -41 -41q-27 0 -43 41l-483 1307q-9 24 -56 24h-102q-20 0 -20 21z" />
<glyph unicode="W" horiz-adv-x="2045" d="M-20 1362q0 20 20 20h481q21 0 21 -20q0 -9 -6 -15t-15 -6h-135l406 -1105l239 632l-157 449q-9 24 -56 24h-102q-9 0 -15 6t-6 15q0 20 21 20h522q21 0 21 -20q0 -9 -6 -15t-15 -6h-176l385 -1105l414 1105h-179q-20 0 -20 21q0 20 20 20h383q21 0 21 -20q0 -9 -6 -15 t-15 -6h-102q-46 0 -55 -24l-488 -1307q-16 -41 -41 -41q-27 0 -43 41l-276 783l-295 -783q-16 -41 -41 -41q-27 0 -43 41l-483 1307q-9 24 -56 24h-102q-20 0 -20 21z" />
<glyph unicode="X" horiz-adv-x="1320" d="M10 20q0 9 6 15t15 6h112q38 0 54 25l370 602l-372 649q-12 24 -56 24h-102q-9 0 -15 6t-6 15q0 20 21 20h502q20 0 20 -20q0 -21 -20 -21h-146l293 -505l313 505h-165q-9 0 -15 6t-6 15q0 20 21 20h383q20 0 20 -20q0 -21 -20 -21h-113q-40 0 -55 -24l-332 -535 l416 -716q16 -25 55 -25h102q9 0 15 -6t6 -15q0 -20 -21 -20h-502q-20 0 -20 20q0 21 20 21h144l-334 575l-354 -575h170q20 0 20 -21q0 -20 -20 -20h-383q-21 0 -21 20z" />
<glyph unicode="Y" horiz-adv-x="1282" d="M-20 1362q0 20 20 20h502q20 0 20 -20q0 -21 -20 -21h-148l353 -639l342 639h-170q-9 0 -15 6t-6 15q0 20 21 20h383q20 0 20 -20q0 -21 -20 -21h-113q-43 0 -55 -24l-357 -666v-579q0 -12 9.5 -21.5t21.5 -9.5h150q20 0 20 -21q0 -20 -20 -20h-543q-21 0 -21 20 q0 9 6 15t15 6h147q12 0 21.5 9.5t9.5 21.5v522l-395 723q-12 24 -56 24h-102q-20 0 -20 21z" />
<glyph unicode="Z" horiz-adv-x="1128" d="M74 6q-1 2 -2 5q0 5 4 12l729 1318h-332q-129 0 -200.5 -69t-86.5 -217q-4 -31 -26 -31q-11 0 -18 9t-7 22l21 307q0 20 20 20h840q9 0 12.5 -6t-2.5 -16l-733 -1319h426q129 0 200.5 69.5t86.5 217.5q4 30 26 30q12 0 18.5 -8.5t6.5 -21.5l-21 -308q0 -20 -20 -20h-930 q-8 0 -12 6z" />
<glyph unicode="[" horiz-adv-x="686" d="M246 -369v1762h327q14 0 22.5 -9t8.5 -22t-8.5 -22t-22.5 -9h-245v-1638h245q14 0 22.5 -9t8.5 -22t-8.5 -22t-22.5 -9h-327z" />
<glyph unicode="\" horiz-adv-x="749" d="M166 1350q-7 29 20 36q28 7 37 -22l361 -1346q6 -29 -21 -36q-28 -7 -37 22z" />
<glyph unicode="]" horiz-adv-x="686" d="M82 -338q0 13 8.5 22t22.5 9h245v1638h-245q-14 0 -22.5 9t-8.5 22t8.5 22t22.5 9h327v-1762h-327q-14 0 -22.5 9t-8.5 22z" />
<glyph unicode="^" horiz-adv-x="1064" d="M172 733l338 643q8 15 22 15q16 0 23 -15l338 -643q16 -33 -4 -47q-9 -8 -23.5 -4.5t-21.5 16.5l-312 553l-311 -553q-7 -13 -21.5 -16.5t-23.5 4.5q-20 14 -4 47z" />
<glyph unicode="_" horiz-adv-x="1034" d="M82 -113q0 13 8.5 22t22.5 9h809q14 0 22 -9t8 -22t-8 -21.5t-22 -8.5h-809q-14 0 -22.5 8.5t-8.5 21.5z" />
<glyph unicode="`" horiz-adv-x="706" d="M167 1229q-6 30 11 55q19 24 49 28t54 -16q72 -63 256 -256q9 -7 4 -16q-8 -8 -19 -2q-29 15 -151.5 75t-171.5 87q-26 15 -32 45z" />
<glyph unicode="a" horiz-adv-x="950" d="M82 195q0 85 45.5 138t128.5 87q81 28 170 28q71 0 147 -18v225q0 185 -143 185q-62 0 -113 -46t-51 -118q0 -82 -61 -82q-26 0 -44 18t-18 54q0 96 88 155.5t209 59.5q142 0 219.5 -66t77.5 -201v-491q0 -46 15 -64t47 -18q52 0 80 57q7 14 22 8q9 -4 9 -12q0 -4 -3 -10 q-26 -54 -72 -79t-98 -25q-132 0 -155 133h-4q-39 -66 -105 -99.5t-145 -33.5q-119 0 -182.5 55.5t-63.5 159.5zM246 197q0 -66 34 -111t97 -45q64 0 121.5 42t74.5 105v201q-39 9 -78 9q-18 0 -37 -2q-58 -6 -105.5 -24.5t-77 -64t-29.5 -110.5z" />
<glyph unicode="b" horiz-adv-x="1097" d="M33 1307v5q0 14 14 17l307 60q3 1 6 1q12 0 17 -14q5 -16 -15 -24q-12 -5 -12 -27v-618q34 79 104 126.5t158 47.5q115 0 204.5 -67t134 -168t44.5 -214q0 -125 -48 -227t-142.5 -163.5t-218.5 -61.5q-152 0 -267 133l-92 -113q-9 -14 -22 -14q-19 0 -19 20v1278 q0 12 -10 19.5t-22 5.5l-99 -17q-7 -1 -13.5 3t-8.5 12zM350 154q32 -37 57 -59.5t73.5 -43t105.5 -20.5q52 0 91 17.5t63 51.5t39 70.5t21.5 89.5t8.5 91.5t2 92.5q0 43 -0.5 71t-5 72.5t-12 74t-22.5 64t-36.5 55t-54 34.5t-74.5 14q-61 0 -109 -28t-74.5 -68.5t-44 -92 t-23 -92.5t-5.5 -77v-317z" />
<glyph unicode="c" horiz-adv-x="903" d="M102 428q0 191 120 322t304 131q121 0 209 -59.5t88 -155.5q0 -36 -17.5 -54t-43.5 -18q-62 0 -62 82q0 72 -50.5 118t-112.5 46q-63 0 -109.5 -26t-72.5 -65.5t-42 -97.5t-21 -110.5t-5 -116.5q0 -185 57 -286t188 -101q171 0 259 143q12 19 30 10q10 -6 10 -16 q0 -6 -4 -14q-44 -79 -126.5 -129.5t-178.5 -50.5q-194 0 -307 122t-113 326z" />
<glyph unicode="d" horiz-adv-x="1124" d="M102 428q0 125 48.5 227t143 164t218.5 62q130 0 236 -103v506q0 12 -10.5 19.5t-22.5 5.5l-99 -17q-7 -1 -13.5 3t-8.5 12q-3 19 14 22l307 60q3 1 6 1q12 0 17 -14q5 -17 -14 -24q-13 -5 -13 -27v-1202q0 -46 15 -64t47 -18q52 0 80 57q7 14 22 8q9 -4 9 -12 q0 -4 -3 -10q-26 -54 -72 -79t-98 -25q-151 0 -157 174h-4q-34 -79 -105.5 -126.5t-159.5 -47.5q-87 0 -160.5 39t-121.5 102.5t-74.5 143t-26.5 163.5zM287 416q0 -43 0.5 -71t5 -72.5t12 -74t22.5 -64t36.5 -55t54 -34.5t74.5 -14q61 0 109 28t74.5 68.5t44 92t23 92.5 t5.5 77v318q-32 37 -57.5 59.5t-73.5 42.5t-105 20q-52 0 -91 -17.5t-63 -51.5t-39 -70.5t-21.5 -89.5t-8.5 -91.5t-2 -92.5z" />
<glyph unicode="e" horiz-adv-x="966" d="M102 428q0 116 54 220t152 168.5t214 64.5q108 0 193.5 -51.5t124.5 -143.5q33 -77 33 -146q0 -9 -1 -18q0 -20 -20 -20h-561q-2 -49 -2 -91q0 -79 8 -137q39 -237 246 -237q94 0 162.5 41.5t105.5 101.5q12 20 31 10q16 -9 6 -30q-44 -79 -126.5 -129.5t-178.5 -50.5 q-197 0 -319 126t-122 322zM297 553h389q8 39 8 86q0 93 -42 144t-126 51q-58 0 -101.5 -24t-69.5 -65t-40 -88.5t-18 -103.5z" />
<glyph unicode="f" horiz-adv-x="673" d="M51 20q0 9 6 15t15 6h96q12 0 21.5 9.5t9.5 21.5v747h-127q-9 0 -15 6t-6 15q0 20 21 20h96q12 0 21.5 9.5t9.5 21.5v70q0 194 110.5 323t292.5 129q121 0 209 -59.5t88 -155.5q0 -36 -17.5 -54t-43.5 -18q-62 0 -62 82q0 72 -51 118t-113 46q-63 0 -109.5 -26 t-72.5 -65.5t-42 -97.5t-21 -110.5t-5 -116.5v-96h211q21 0 21 -20q0 -9 -6 -15t-15 -6h-180q-12 0 -21.5 -9.5t-9.5 -21.5v-716q0 -12 9.5 -21.5t21.5 -9.5h160q20 0 20 -21q0 -20 -20 -20h-481q-21 0 -21 20z" />
<glyph unicode="g" horiz-adv-x="1021" d="M31 -297q0 74 55.5 129.5t144.5 85.5q21 7 25 -6q6 -13 -10 -21q-78 -54 -78 -157q0 -113 82 -174.5t221 -61.5q64 0 127 16.5t117 47t87.5 81.5t33.5 113q0 197 -263 197h-213q-234 0 -247 166q-1 9 -1 18q0 61 36 108q41 54 143 99q-61 39 -95 100t-34 136q0 85 49 155 t125.5 108t159.5 38q148 0 247 -107q12 60 52.5 98.5t97.5 38.5q74 0 113 -61q15 -23 15 -53v-11q-3 -36 -26 -49q-13 -8 -31.5 -9t-36.5 8.5t-24 31.5q-19 72 -51 72q-31 0 -51 -25t-23 -61q47 -100 47 -168q0 -127 -97 -213t-224 -86q-72 0 -164 30q-58 -12 -100 -53 q-31 -32 -31 -68q0 -13 4 -26q15 -57 117 -57h258q145 0 239 -62q111 -70 111 -225q0 -75 -27 -137.5t-73.5 -106.5t-109 -75t-132.5 -45.5t-145 -14.5q-87 0 -161 15t-133 45t-92.5 80.5t-33.5 115.5zM315 582q0 -43 3.5 -76t15 -68t31 -57t53.5 -36.5t80 -14.5 q174 0 174 252q0 258 -176 258q-99 0 -140 -67t-41 -191z" />
<glyph unicode="h" horiz-adv-x="1175" d="M53 1312q0 14 15 17l307 60h5q13 0 17 -13q5 -17 -14 -24q-12 -5 -12 -27v-680h4q39 102 123 169t194 67q135 0 209 -74.5t74 -212.5v-522q0 -12 9.5 -21.5t21.5 -9.5h98q20 0 20 -21q0 -20 -20 -20h-420q-20 0 -20 20q0 21 20 21h96q12 0 21.5 9.5t9.5 21.5v583 q0 174 -133 174q-74 0 -134 -39.5t-97 -104t-56.5 -141t-19.5 -155.5v-317q0 -12 9 -21.5t21 -9.5h99q20 0 20 -21q0 -20 -20 -20h-420q-21 0 -21 20q0 9 6 15t15 6h96q12 0 21.5 9.5t9.5 21.5v1212q0 12 -10.5 19.5t-22.5 5.5l-98 -17q-8 -2 -15 3q-8 6 -8 17z" />
<glyph unicode="i" horiz-adv-x="571" d="M61 783q7 -5 15 -3l98 17q12 2 22.5 -5.5t10.5 -19.5v-700q0 -12 -9.5 -21.5t-21.5 -9.5h-96q-9 0 -15 -6t-6 -15q0 -20 21 -20h420q20 0 20 20q0 21 -20 21h-99q-12 0 -21 9.5t-9 21.5v741q0 22 12 27q19 7 14 24q-5 16 -22 13l-307 -60q-15 -3 -15 -17q0 -11 8 -17z M199 1243q0 40 28 68t68 28t68 -28t28 -68t-28 -68t-68 -28t-68 28t-28 68z" />
<glyph unicode="j" horiz-adv-x="540" d="M-99 -480q9 -33 38 -52q41 -28 89 -36q18 -2 36 -2q30 0 60 8q47 12 91.5 48t78.5 88.5t54.5 131t20.5 171.5v936q0 22 12 27q15 6 15 17q0 3 -1 7q-5 16 -22 13l-307 -60q-18 -4 -15 -22q1 -7 8 -12t15 -3l98 17q12 2 22.5 -5.5t10.5 -19.5v-874q0 -60 -0.5 -96.5 t-3 -90t-8 -87t-14.5 -68t-24.5 -53.5t-35.5 -25q-15 -4 -28.5 0.5t-24.5 17t-18 22.5t-16 27t-12 21q-19 30 -50 33.5t-50 -15.5q-21 -23 -21 -47q0 -8 2 -17zM197 1243q0 40 28 68t68 28t68 -28t28 -68t-28 -68t-68 -28t-68 28t-28 68z" />
<glyph unicode="k" horiz-adv-x="1089" d="M53 1312q0 14 15 17l307 60h5q13 0 17 -13q5 -17 -14 -24q-12 -5 -12 -27v-1253q0 -12 9 -21.5t21 -9.5h99q20 0 20 -21q0 -20 -20 -20h-420q-21 0 -21 20q0 9 6 15t15 6h96q12 0 21.5 9.5t9.5 21.5v1212q0 12 -10.5 19.5t-22.5 5.5l-98 -17q-8 -2 -15 3q-8 6 -8 17z M387 465q0 8 10 18l410 336h-148q-20 0 -20 21q0 20 20 20h338q21 0 21 -20q0 -9 -6 -15t-15 -6h-102q-16 0 -45 -24l-322 -265l412 -464q21 -25 41 -25h78q20 0 20 -21q0 -20 -20 -20h-400q-20 0 -20 20q0 21 20 21h91l-355 405q-8 8 -8 19z" />
<glyph unicode="l" horiz-adv-x="571" d="M53 1312q0 14 15 17l307 60h5q13 0 17 -13q5 -17 -14 -24q-12 -5 -12 -27v-1253q0 -12 9 -21.5t21 -9.5h99q20 0 20 -21q0 -20 -20 -20h-420q-21 0 -21 20q0 9 6 15t15 6h96q12 0 21.5 9.5t9.5 21.5v1212q0 12 -10.5 19.5t-22.5 5.5l-98 -17q-8 -2 -15 3q-8 6 -8 17z" />
<glyph unicode="m" horiz-adv-x="1697" d="M53 800q0 14 15 17l307 60q17 3 22 -13q5 -17 -14 -24q-12 -5 -12 -27v-147h4q37 95 117 155t172 60q116 0 186 -54t82 -165h4q37 96 118 157.5t173 61.5q127 0 198.5 -66.5t71.5 -200.5v-542q0 -12 9.5 -21.5t21.5 -9.5h98q9 0 15 -6t6 -15q0 -20 -21 -20h-420 q-20 0 -20 20q0 21 20 21h97q12 0 21 9.5t9 21.5v583q0 87 -23.5 130.5t-92.5 43.5q-56 0 -104 -25.5t-80 -65t-55 -88.5t-33.5 -94.5t-10.5 -84.5v-399q0 -12 9.5 -21.5t21.5 -9.5h98q20 0 20 -21q0 -20 -20 -20h-420q-20 0 -20 20q0 21 20 21h96q12 0 21.5 9.5t9.5 21.5 v583q0 87 -24 130.5t-93 43.5t-125.5 -38t-89 -95.5t-50 -116.5t-17.5 -108v-399q0 -12 9 -21.5t21 -9.5h99q20 0 20 -21q0 -20 -20 -20h-420q-21 0 -21 20q0 9 6 15t15 6h96q12 0 21.5 9.5t9.5 21.5v700q0 12 -10.5 19.5t-22.5 5.5l-98 -17q-8 -2 -15 3q-8 6 -8 17z" />
<glyph unicode="n" horiz-adv-x="1175" d="M53 800q0 14 15 17l307 60q17 3 22 -13q5 -17 -14 -24q-12 -5 -12 -27v-168h4q39 102 123 169t194 67q135 0 209 -74.5t74 -212.5v-522q0 -12 9.5 -21.5t21.5 -9.5h98q20 0 20 -21q0 -20 -20 -20h-420q-20 0 -20 20q0 21 20 21h96q12 0 21.5 9.5t9.5 21.5v583 q0 174 -133 174q-74 0 -134 -39.5t-97 -104t-56.5 -141t-19.5 -155.5v-317q0 -12 9 -21.5t21 -9.5h99q20 0 20 -21q0 -20 -20 -20h-420q-21 0 -21 20q0 9 6 15t15 6h96q12 0 21.5 9.5t9.5 21.5v700q0 12 -10.5 19.5t-22.5 5.5l-98 -17q-8 -2 -15 3q-8 6 -8 17z" />
<glyph unicode="o" horiz-adv-x="1075" d="M102 430q0 184 129 317.5t308 133.5q117 0 217.5 -62.5t158.5 -166t58 -222.5t-58 -223t-158 -165.5t-218 -61.5q-181 0 -309 133.5t-128 316.5zM287 430q0 -64 5 -115t20.5 -106.5t42 -92.5t73.5 -61t111 -24q62 0 106.5 18.5t71.5 50t43 83.5t22 109.5t6 137.5 q0 64 -5 115t-20.5 106.5t-42 92.5t-72.5 61t-109 24q-62 0 -108 -23t-73 -60t-43.5 -91t-22 -107t-5.5 -118z" />
<glyph unicode="p" horiz-adv-x="1124" d="M53 800q0 14 15 17l307 60q17 3 22 -13q5 -17 -14 -24q-12 -5 -12 -27v-158h4q34 98 110.5 162t178.5 64q175 0 266.5 -118.5t91.5 -322.5q0 -125 -48 -229t-143 -167.5t-219 -63.5q-130 0 -235 102h-6v-543q0 -12 9 -21.5t21 -9.5h99q20 0 20 -20t-20 -20h-420 q-21 0 -21 20t21 20h96q12 0 21.5 9.5t9.5 21.5v1233q0 12 -10.5 19.5t-22.5 5.5l-98 -17q-8 -2 -15 3q-8 6 -8 17zM371 154q49 -57 103.5 -90t137.5 -33q45 0 80.5 14.5t58.5 37t40 59t26 70t14 80t6 80t1 79.5q0 43 -4 85t-17 95.5t-34 93t-60 67t-90 27.5 q-62 0 -113.5 -39t-83 -100.5t-48.5 -132t-17 -137.5v-256z" />
<glyph unicode="q" horiz-adv-x="1081" d="M102 428q0 125 48.5 227t143 164t218.5 62q151 0 266 -133l92 112q14 14 23 14q18 0 18 -20v-1315q0 -12 9.5 -21.5t21.5 -9.5h98q21 0 21 -20t-21 -20h-419q-21 0 -21 20t21 20h96q12 0 21.5 9.5t9.5 21.5v615q-34 -79 -104.5 -126.5t-158.5 -47.5q-87 0 -160.5 39 t-121.5 102.5t-74.5 143t-26.5 163.5zM287 416q0 -43 0.5 -71t5 -72.5t12 -74t22.5 -64t36.5 -55t54 -34.5t74.5 -14q61 0 109 28t74.5 68.5t44 92t23 92.5t5.5 77v318q-32 37 -57.5 59.5t-73.5 42.5t-105 20q-52 0 -91 -17.5t-63 -51.5t-39 -70.5t-21.5 -89.5t-8.5 -91.5 t-2 -92.5z" />
<glyph unicode="r" horiz-adv-x="798" d="M53 800q0 14 15 17l307 60q17 3 22 -13q5 -17 -14 -24q-12 -5 -12 -27v-168h4q35 107 97.5 171.5t150.5 64.5q47 0 82.5 -20t53 -50t24.5 -60q4 -19 4 -36q0 -10 -1 -19q-9 -61 -61 -61q-31 0 -47 19t-20 46t-8.5 54t-20.5 46t-47 19q-57 0 -106 -60.5t-77 -159.5 t-28 -210v-317q0 -12 9 -21.5t21 -9.5h99q20 0 20 -21q0 -20 -20 -20h-420q-21 0 -21 20q0 9 6 15t15 6h96q12 0 21.5 9.5t9.5 21.5v700q0 12 -10.5 19.5t-22.5 5.5l-98 -17q-8 -2 -15 3q-8 6 -8 17z" />
<glyph unicode="s" horiz-adv-x="821" d="M113 0v225q0 21 20 21q9 0 15 -6t6 -15q0 -99 61.5 -149.5t177.5 -50.5q79 0 132 40.5t53 118.5q0 34 -11.5 59.5t-35 43.5t-45 29t-56.5 24l-111 41q-206 83 -206 242q0 121 74.5 189.5t205.5 68.5q51 0 114 -20.5t71 -20.5q12 0 19 6t7 14q0 9 6 15t15 6q20 0 20 -21 v-225q1 -9 -5 -15t-15 -6t-15 6t-6 15q0 51 -19.5 92t-51 64.5t-67.5 36t-73 12.5q-77 0 -125.5 -38.5t-48.5 -105.5q0 -101 139 -153l134 -49q217 -78 217 -240q0 -131 -85.5 -202.5t-240.5 -71.5q-54 0 -124.5 20t-78.5 20q-11 0 -18.5 -6t-7.5 -14q0 -20 -21 -20 q-20 0 -20 20z" />
<glyph unicode="t" horiz-adv-x="630" d="M51 840q0 20 21 20h75q67 0 97.5 55t48.5 197q4 25 24 25q11 0 18 -7.5t7 -17.5v-252h211q20 0 20 -20q0 -21 -20 -21h-180q-12 0 -21.5 -9.5t-9.5 -21.5v-604q0 -32 3 -55.5t12 -47.5t28.5 -37t48.5 -13q46 0 81.5 37t57.5 86q9 21 27 12q10 -5 10 -15q0 -6 -4 -14 q-73 -157 -217 -157q-211 0 -211 215v624h-106q-9 0 -15 6t-6 15z" />
<glyph unicode="u" horiz-adv-x="1177" d="M53 800q0 14 15 17l307 60h5q13 0 17 -13q5 -17 -14 -24q-12 -5 -12 -27v-608q0 -174 133 -174q74 0 131 39.5t90 104.5t49.5 140.5t16.5 155.5v317q0 12 -9.5 21.5t-21.5 9.5h-96q-9 0 -15 6t-6 15q0 20 21 20h270q20 0 20 -20v-717q0 -46 15 -64t47 -18q52 0 80 57 q7 14 22 8q9 -4 9 -12q0 -4 -3 -10q-26 -54 -74 -79t-100 -25q-77 0 -118 45t-41 129v61h-5q-40 -105 -114.5 -170t-182.5 -65q-135 0 -208.5 74t-73.5 212v506q0 12 -10.5 19.5t-22.5 5.5l-98 -17q-8 -2 -15 3q-8 6 -8 17z" />
<glyph unicode="v" horiz-adv-x="999" d="M-20 840q0 20 20 20h410q20 0 20 -20q0 -21 -20 -21h-121l252 -635l243 635h-122q-9 0 -15 6t-6 15q0 20 21 20h317q20 0 20 -20q0 -21 -20 -21h-92q-44 0 -56 -24l-303 -775q-18 -40 -43 -40q-13 0 -23 7.5t-13 13t-9 19.5l-313 775q-12 24 -55 24h-72q-20 0 -20 21z " />
<glyph unicode="w" horiz-adv-x="1437" d="M-20 840q0 20 20 20h410q20 0 20 -20q0 -21 -20 -21h-121l211 -635l225 656q11 30 31 30t30 -30l215 -656l222 635h-123q-9 0 -15 6t-6 15q0 20 21 20h317q21 0 21 -20q0 -9 -6 -15t-15 -6h-92q-43 0 -55 -24l-281 -775q-14 -40 -43 -40q-31 0 -47 40l-197 594l-215 -594 q-14 -40 -43 -40q-14 0 -23 6.5t-13 13.5t-9 20l-272 775q-12 24 -55 24h-72q-20 0 -20 21z" />
<glyph unicode="x" horiz-adv-x="966" d="M0 840q0 20 20 20h412q21 0 21 -20q0 -9 -6 -15t-15 -6h-115l203 -299l221 299h-129q-20 0 -20 21q0 20 20 20h318q20 0 20 -20q0 -21 -20 -21h-92q-38 0 -56 -24l-235 -316l278 -413q19 -25 60 -25h61q9 0 15 -6t6 -15q0 -20 -21 -20h-409q-21 0 -21 20q0 9 6 15t15 6 h114l-205 307l-235 -307h133q9 0 15 -6t6 -15q0 -20 -21 -20h-317q-21 0 -21 20q0 9 6 15t15 6h92q36 0 55 25l244 325l-266 404q-19 24 -64 24h-68q-20 0 -20 21z" />
<glyph unicode="y" horiz-adv-x="987" d="M-20 840q0 20 20 20h410q20 0 20 -20q0 -21 -20 -21h-117l237 -622l248 622h-123q-20 0 -20 21q0 20 20 20h312q20 0 20 -20q0 -21 -20 -21h-93q-43 0 -55 -24l-518 -1287h125q20 0 20 -20t-20 -20h-317q-21 0 -21 20t21 20h96q43 0 55 25l180 455l-313 807q-9 24 -55 24 h-72q-20 0 -20 21z" />
<glyph unicode="z" horiz-adv-x="870" d="M74 6l-2 4q0 4 4 10l524 789h-360q-11 0 -16.5 -1t-12.5 -8t-12 -22l-45 -143q-6 -21 -23 -21q-21 0 -18 27l18 199q3 20 21 20h630q9 0 13 -5.5t-2 -14.5l-535 -789h412q11 0 16.5 1t12.5 8t12 22l45 143q6 21 22 21q19 0 19 -21v-6l-19 -199q-3 -20 -20 -20h-672 q-8 0 -12 6z" />
<glyph unicode="{" horiz-adv-x="733" d="M82 524q0 13 10 13h37q57 0 105 31.5t73 86.5q14 29 20.5 70t7.5 68.5t1 78.5v47v49.5t0.5 44.5t2.5 47t5 42t7.5 44.5t11.5 39.5t16 41q34 75 133 141t184 66q13 0 15 -7q4 -11 -13 -14q-75 -13 -138 -61.5t-95 -112.5q-13 -26 -21.5 -54t-12 -66t-4 -56.5t0 -68.5 t0.5 -60q0 -234 -49 -309q-27 -43 -81 -71t-108 -28v-4q54 0 108 -27.5t81 -70.5q49 -75 49 -309q0 -10 -0.5 -60t0 -68.5t4 -56.5t12 -66t21.5 -54q32 -64 95 -113t138 -62q17 -3 13 -14q-2 -6 -15 -6q-85 0 -184 66t-133 141q-9 19 -16 40.5t-11.5 39.5t-7.5 45t-5 42 t-2.5 47t-0.5 44v49v47q0 51 -1 78.5t-7.5 68.5t-20.5 70q-25 55 -73 87t-105 32h-37q-10 0 -10 12z" />
<glyph unicode="|" horiz-adv-x="552" d="M246 -215v1679q0 14 8.5 22.5t21.5 8.5t22 -8.5t9 -22.5v-1679q0 -14 -9 -22.5t-22 -8.5t-21.5 8.5t-8.5 22.5z" />
<glyph unicode="}" horiz-adv-x="733" d="M23 -379q-4 11 12 14q75 13 138 62t95 113q13 26 21.5 54t12 66t4 56.5t0 68.5t-0.5 60q0 234 49 309q27 43 81 70.5t108 27.5v4q-54 0 -108 28t-81 71q-49 75 -49 309q0 10 0.5 60t0 68.5t-4 56.5t-12 66t-21.5 54q-32 64 -95 112.5t-138 61.5q-16 3 -12 14q2 7 14 7 q85 0 184 -66t133 -141q10 -22 17.5 -44t12.5 -51.5t7.5 -45t4 -55.5t1.5 -48.5v-57.5v-53q0 -51 1 -78.5t7.5 -68.5t20.5 -70q25 -55 73 -86.5t105 -31.5h37q10 0 10 -13q0 -12 -10 -12h-37q-57 0 -105 -32t-73 -87q-14 -29 -20.5 -70t-7.5 -68.5t-1 -78.5v-47v-49 t-0.5 -44t-2.5 -47t-5 -42t-7.5 -45t-11.5 -39.5t-16 -40.5q-34 -75 -133 -141t-184 -66q-12 0 -14 6z" />
<glyph unicode="~" horiz-adv-x="1210" d="M172 469q-16 7 4 47q34 71 106 103.5t175 11.5q52 -10 207.5 -67t224.5 -62q72 -6 97 28q20 27 -10 51q-19 16 -54 23q-48 8 -76 30t-15 52q16 39 109 19q66 -15 94 -80q30 -72 -7 -139q-50 -90 -190 -98q-49 -3 -106 5q-81 12 -193 52.5t-139 48.5q-46 13 -75 18t-60 0 t-53 -25q-3 -2 -8.5 -7t-8 -6.5l-7.5 -4.5t-7 -2t-8 2z" />
<glyph unicode="&#xa1;" horiz-adv-x="546" d="M164 772q0 45 32.5 77t77.5 32t77 -32t32 -77q0 -46 -32.5 -78t-76.5 -32q-45 0 -77.5 32.5t-32.5 77.5zM174 -434q0 91 30 394.5t54 510.5q2 14 14 14q13 0 15 -14q24 -207 54 -510.5t30 -394.5q0 -40 -29 -69t-70 -29t-69.5 29t-28.5 69z" />
<glyph unicode="&#xa2;" horiz-adv-x="944" d="M92 432q0 84 27 162.5t78.5 143.5t137 104t191.5 39q30 0 86 -9l33 119q9 30 37 23q27 -7 20 -37l-32 -119q29 -7 71 -29q7 -2 15 -5.5t12.5 -5.5t11.5 -3.5t15 -1.5q14 0 22 10t10.5 22t8 22t14.5 10q12 0 12 -21v-258q0 -18 -14 -18q-19 0 -19 18q0 88 -44.5 145 t-122.5 80l-209 -782q51 -21 94 -21q126 0 204 62t78 180q0 21 19 21q14 0 14 -21v-256q0 -22 -12 -22q-9 0 -14.5 10t-8 22.5t-10.5 22.5t-22 10q-8 0 -15 -1.5t-11.5 -3.5t-13 -6t-14.5 -7q-47 -28 -110 -39.5t-105 -11.5q-51 0 -90 8l-28 -111q-9 -29 -37 -22 q-27 7 -21 36l29 109q-139 45 -213 165.5t-74 266.5zM270 432q0 -107 34 -203.5t95 -152.5l203 760q-36 4 -55 4q-86 0 -150.5 -61t-95.5 -152t-31 -195z" />
<glyph unicode="&#xa3;" horiz-adv-x="1267" d="M123 102q0 61 39.5 102.5t124.5 41.5q40 0 92 -19q-2 64 -25.5 219.5t-29.5 208.5h-117q-14 0 -22.5 9t-8.5 22t8.5 22t22.5 9h110q-14 137 -14 244q0 194 111 323t293 129q121 0 209 -59.5t88 -155.5q0 -36 -18 -54t-44 -18q-61 0 -61 82q0 72 -51 118t-113 46 q-157 0 -211.5 -152.5t-22.5 -441.5q1 -8 6 -61h261q14 0 22 -9t8 -22t-8 -22t-22 -9h-254q17 -253 -41 -458q27 -12 100.5 -47.5t116 -54.5t99.5 -36.5t97 -17.5q39 0 72.5 9.5t54.5 20.5t45 34t34 35.5t30 39.5q12 20 31 10q16 -9 6 -30q-23 -42 -52.5 -73.5t-74.5 -59.5 t-111.5 -43t-152.5 -15q-197 0 -353 88q-55 -77 -139 -77q-66 0 -100.5 34t-34.5 88zM164 102q0 -34 27 -52.5t67 -18.5q70 0 98 51q-15 9 -41.5 26t-39 24.5t-29.5 14.5t-29 7q-26 0 -39.5 -15.5t-13.5 -36.5z" />
<glyph unicode="&#xa4;" horiz-adv-x="1050" d="M143 928l17 16l162 -184q90 74 204 74q113 0 203 -74l160 184l18 -16l-159 -183q102 -96 102 -235q0 -68 -26.5 -129t-73.5 -105l155 -176l-18 -18l-158 178q-88 -72 -203 -72q-116 0 -204 72l-156 -178l-19 18l156 176q-98 95 -98 234q0 138 98 233zM229 510 q0 -122 87.5 -209.5t209.5 -87.5t210.5 88t88.5 209q0 122 -88.5 210.5t-210.5 88.5q-121 0 -209 -88.5t-88 -210.5z" />
<glyph unicode="&#xa5;" horiz-adv-x="1282" d="M-20 1362q0 20 20 20h502q20 0 20 -20q0 -21 -20 -21h-148l353 -639l342 639h-170q-9 0 -15 6t-6 15q0 20 21 20h383q20 0 20 -20q0 -21 -20 -21h-113q-43 0 -55 -24l-355 -662h265q14 0 22 -8.5t8 -21.5t-8 -22t-22 -9h-267v-522q0 -12 9.5 -21.5t21.5 -9.5h150 q20 0 20 -21q0 -20 -20 -20h-543q-21 0 -21 20q0 9 6 15t15 6h147q12 0 21.5 9.5t9.5 21.5v522h-256q-14 0 -22.5 9t-8.5 22t8.5 21.5t22.5 8.5h221l-360 662q-12 24 -56 24h-102q-20 0 -20 21z" />
<glyph unicode="&#xa6;" horiz-adv-x="552" d="M246 -215v655q0 14 8.5 22.5t21.5 8.5t22 -8.5t9 -22.5v-655q0 -14 -9 -22.5t-22 -8.5t-21.5 8.5t-8.5 22.5zM246 809v655q0 14 8.5 22.5t21.5 8.5t22 -8.5t9 -22.5v-655q0 -14 -9 -22.5t-22 -8.5t-21.5 8.5t-8.5 22.5z" />
<glyph unicode="&#xa7;" horiz-adv-x="1105" d="M164 524q0 211 151 314q-12 12 -16 18q-74 87 -74 215q0 147 95 244.5t235 97.5q121 0 211 -59.5t90 -155.5q0 -36 -17.5 -54t-43.5 -18q-62 0 -62 82q0 71 -56.5 112.5t-121.5 41.5q-103 0 -166 -61.5t-63 -172.5q0 -82 58 -136.5t140 -82.5q10 -4 102.5 -36t139.5 -56 q82 -39 129 -116.5t47 -180.5q0 -105 -40.5 -185.5t-110.5 -129.5q3 -2 8.5 -8.5t7.5 -8.5q74 -87 74 -215q0 -147 -95 -244.5t-235 -97.5q-121 0 -211 59.5t-90 155.5q0 36 17.5 54t43.5 18q62 0 62 -82q0 -71 56.5 -112t121.5 -41q103 0 166 61t63 172q0 82 -58 136.5 t-140 82.5q-10 4 -102.5 36t-139.5 56q-82 39 -129 116.5t-47 180.5zM281 602q0 -136 125 -215q26 -15 53 -25.5t71.5 -24t51.5 -15.5q92 -29 159 -76q84 71 84 196q0 136 -125 215q-20 12 -45 22.5t-42.5 16t-47 14.5t-41.5 13q-95 30 -159 74q-84 -71 -84 -195z" />
<glyph unicode="&#xa8;" horiz-adv-x="856" d="M164 1133q0 40 26 66t64 26t64 -26t26 -66q0 -38 -26 -63.5t-64 -25.5t-64 25.5t-26 63.5zM512 1133q0 40 26 66t64 26t64 -26t26 -66q0 -38 -26 -63.5t-64 -25.5t-64 25.5t-26 63.5z" />
<glyph unicode="&#xa9;" horiz-adv-x="1771" d="M164 690q0 196 96.5 362.5t262.5 263.5t362 97t362.5 -97t263.5 -263.5t97 -362.5t-97 -362t-263.5 -262.5t-362.5 -96.5t-362 96.5t-262.5 262.5t-96.5 362zM201 690q0 -186 91.5 -343.5t249 -249t343.5 -91.5q187 0 344.5 91.5t249.5 249t92 343.5t-92 344t-250 250 t-344 92t-343.5 -92t-249 -249.5t-91.5 -344.5zM504 686q0 109 46 206.5t135 160.5t200 63q96 0 176 -47q27 -16 49 -16q20 0 29.5 29.5t19.5 29.5q7 0 9.5 -3.5t2.5 -14.5v-250q0 -21 -16 -21q-6 0 -11 6t-5 15q0 114 -71 175.5t-183 61.5q-54 0 -96 -15t-69.5 -44t-46 -64 t-28 -82.5t-13 -91.5t-3.5 -98t3.5 -98t13 -92t28 -83t46 -64.5t69.5 -44.5t96 -15q112 0 183 61.5t71 175.5q0 9 5 16t11 7q16 0 16 -23v-247q0 -19 -12 -19q-10 0 -19.5 29.5t-29.5 29.5q-19 0 -49 -18q-80 -47 -176 -47q-111 0 -200 63.5t-135 161.5t-46 207z" />
<glyph unicode="&#xaa;" horiz-adv-x="835" d="M164 1001q0 90 102 136q83 39 195 6v137q0 109 -90 109q-35 0 -58.5 -27t-23.5 -72q0 -20 -11 -34.5t-34 -14.5q-16 0 -29.5 11.5t-13.5 31.5q0 56 53 92.5t123 36.5q89 0 139.5 -40t50.5 -118v-297q0 -49 37 -49q27 0 49 35q4 7 13 4q3 -1 4.5 -6t-0.5 -6 q-16 -32 -48.5 -48t-64.5 -16q-80 0 -92 80h-2q-21 -38 -63 -59t-87 -21q-72 0 -110.5 33t-38.5 96zM274 1004q0 -95 66 -95q41 0 76 25.5t45 64.5v123q-187 12 -187 -118z" />
<glyph unicode="&#xab;" horiz-adv-x="997" d="M164 520q0 12 14 23l438 317q10 8 25.5 7t22.5 -11q7 -9 3 -22.5t-16 -22.5l-389 -291l389 -291q12 -9 16 -22.5t-3 -22.5q-7 -10 -22.5 -11t-25.5 7l-438 318q-14 10 -14 22zM471 520q0 12 14 23l295 215q10 8 25 7t22 -11q7 -9 3.5 -22.5t-15.5 -22.5l-246 -189 l246 -188q12 -9 15.5 -22.5t-3.5 -22.5q-7 -10 -22 -11t-25 7l-295 215q-14 10 -14 22z" />
<glyph unicode="&#xac;" horiz-adv-x="1198" d="M164 502q0 13 8.5 21.5t22.5 8.5h809q14 0 22 -8.5t8 -21.5v-389q0 -14 -8.5 -22.5t-21.5 -8.5t-22 8.5t-9 22.5v358h-778q-14 0 -22.5 9t-8.5 22z" />
<glyph unicode="&#xad;" horiz-adv-x="931" d="M164 502q0 13 8.5 21.5t22.5 8.5h542q14 0 22.5 -8.5t8.5 -21.5t-8.5 -22t-22.5 -9h-542q-14 0 -22.5 9t-8.5 22z" />
<glyph unicode="&#xae;" horiz-adv-x="1771" d="M164 690q0 196 96.5 362.5t262.5 263.5t362 97t362.5 -97t263.5 -263.5t97 -362.5t-97 -362t-263.5 -262.5t-362.5 -96.5t-362 96.5t-262.5 262.5t-96.5 362zM201 690q0 -186 91.5 -343.5t249 -249t343.5 -91.5q187 0 344.5 91.5t249.5 249t92 343.5t-92 344t-250 250 t-344 92t-343.5 -92t-249 -249.5t-91.5 -344.5zM535 289q0 14 12 14h88q7 0 12.5 5.5t5.5 13.5v741q0 7 -5.5 12.5t-12.5 5.5h-88q-12 0 -12 13q0 12 12 12h305q84 0 149 -19.5t109.5 -70.5t44.5 -129q0 -89 -50 -142.5t-128 -72.5q16 -6 72 -107l139 -248q6 -14 24 -14h48 q12 0 12 -14q0 -13 -12 -13h-166q-4 0 -9.5 4t-7.5 9l-194 338q-1 5 -3 8.5t-4 6.5t-4.5 5t-5 3.5t-6 2.5t-6 1.5t-7 0.5h-6h-6.5h-6h-63v-333q0 -19 16 -19h90q11 0 11 -14q0 -13 -11 -13h-325q-12 0 -12 13zM766 696h70q96 0 144 44t48 147q0 101 -48 144.5t-144 43.5h-54 q-16 0 -16 -16v-363z" />
<glyph unicode="&#xaf;" horiz-adv-x="921" d="M164 1096q0 13 8.5 21.5t22.5 8.5h532q14 0 22.5 -8.5t8.5 -21.5t-8.5 -22t-22.5 -9h-532q-14 0 -22.5 9t-8.5 22z" />
<glyph unicode="&#xb0;" horiz-adv-x="731" d="M164 1210q0 85 58 144t143 59t143.5 -59t58.5 -144t-58.5 -142.5t-143.5 -57.5t-143 57.5t-58 142.5zM209 1210q0 -66 45 -110.5t111 -44.5t111.5 44.5t45.5 110.5t-45.5 112t-111.5 46t-111 -46t-45 -112z" />
<glyph unicode="&#xb1;" horiz-adv-x="1198" d="M164 92q0 13 8.5 22t22.5 9h374v348h-374q-14 0 -22.5 9t-8.5 22t8.5 21.5t22.5 8.5h374v390q0 14 9 22t22 8t22 -8t9 -22v-390h373q14 0 22 -8.5t8 -21.5t-8 -22t-22 -9h-373v-348h373q14 0 22 -9t8 -22t-8 -22t-22 -9h-809q-14 0 -22.5 9t-8.5 22z" />
<glyph unicode="&#xb2;" horiz-adv-x="614" d="M61.5 1031q-4.5 7 4.5 18q83 75 123.5 114t88.5 89.5t70 85.5t39.5 77.5t24.5 89.5q13 87 -18.5 130.5t-84.5 43.5q-43 0 -75 -26.5t-35 -59.5q0 -26 -13 -44.5t-41 -18.5q-22 0 -36 15.5t-13 41.5q4 53 75.5 93t145.5 40q102 0 167 -53t65 -151q0 -48 -23 -95t-67 -90.5 t-83.5 -76t-96 -74.5t-82.5 -64h264q11 0 16.5 1t13 8.5t11.5 21.5l12 53q6 21 23 21q21 0 18 -27l-8 -150q-3 -20 -21 -20h-454q-6 0 -10.5 7z" />
<glyph unicode="&#xb3;" horiz-adv-x="614" d="M72 1133q0 55 51 55q29 0 41 -19t12 -43q0 -35 30 -58.5t77 -23.5q65 0 94 49t29 130q0 74 -39.5 111.5t-104.5 37.5q-47 0 -88 -16q-28 -11 -35 10q-5 14 8 23.5t48 13.5q190 23 190 170q0 55 -27 80.5t-69 25.5q-28 0 -50 -16.5t-22 -48.5q0 -58 -51 -58 q-22 0 -37.5 15.5t-15.5 38.5q0 51 54.5 80.5t135.5 29.5q97 0 153 -40t56 -107q0 -62 -50 -104t-116 -60q77 -2 137 -55t56 -146q-5 -91 -75 -147.5t-188 -56.5q-87 0 -145.5 37.5t-58.5 91.5z" />
<glyph unicode="&#xb4;" horiz-adv-x="706" d="M166 1026q-5 9 4 16q184 193 256 256q24 20 53.5 16t48.5 -28q18 -25 12 -55t-32 -45q-48 -27 -170.5 -86.5t-153.5 -75.5q-10 -6 -18 2z" />
<glyph unicode="&#xb5;" horiz-adv-x="1175" d="M-99 -479.5q-9 33.5 19 63.5q19 19 50 15.5t50 -33.5q3 -4 12 -21t16 -27t18 -22.5t24.5 -17t28.5 -0.5q20 6 35.5 25t24.5 53.5t14.5 68t8 87t3 90t0.5 96.5v874q0 12 -10.5 19.5t-22.5 5.5l-98 -17q-8 -2 -15 3t-8 12q-3 18 15 22l307 60q17 3 22 -13q5 -17 -14 -24 q-12 -5 -12 -27v-608q0 -174 133 -174q74 0 131 39.5t89.5 104.5t49 140t16.5 156v317q0 12 -9 21.5t-21 9.5h-96q-9 0 -15 6t-6 15q0 20 21 20h270q20 0 20 -20v-717q0 -46 15 -64t47 -18q52 0 80 57q7 14 22 8q14 -7 6 -22q-26 -54 -74 -79t-100 -25q-77 0 -118.5 45 t-41.5 129v61h-4q-40 -105 -114.5 -170t-182.5 -65q-65 0 -118 18v-121q0 -93 -20.5 -171.5t-54.5 -131t-78.5 -88.5t-92 -48.5t-95.5 -5t-89 35.5q-29 19 -38 52.5z" />
<glyph unicode="&#xb6;" horiz-adv-x="1132" d="M102 993q0 96 35 172t95.5 122.5t137 70.5t162.5 24h449q14 0 22.5 -8.5t8.5 -21.5t-8.5 -22t-22.5 -9h-100v-1311q0 -193 -111 -321.5t-293 -128.5q-121 0 -209 59.5t-88 155.5q0 36 18 53.5t44 17.5q61 0 61 -82q0 -72 51 -117.5t113 -45.5q63 0 109.5 25t72.5 64 t42 95.5t21 109t5 115.5v1311h-123v-1290q0 -14 -9 -22.5t-22 -8.5t-22 8.5t-9 22.5v573q-86 0 -162.5 24t-137 70.5t-95.5 122.5t-35 172z" />
<glyph unicode="&#xb7;" horiz-adv-x="503" d="M164 539q0 37 25.5 62.5t62.5 25.5t62.5 -25.5t25.5 -62.5t-25.5 -62.5t-62.5 -25.5t-62.5 25.5t-25.5 62.5z" />
<glyph unicode="&#xb8;" horiz-adv-x="665" d="M166 -422q6 8 18 2q36 -18 82 -18q56 0 89.5 38t33.5 93q0 25 -5.5 47t-17 42t-34 30t-53.5 6q-30 -4 -44 2t-13 17.5t7 25.5l74 137h45l-69 -143l2 -2q21 12 57 12q64 0 114 -42.5t50 -115.5q0 -86 -60.5 -135.5t-154.5 -44.5q-63 3 -113 31q-12 7 -8 18z" />
<glyph unicode="&#xb9;" horiz-adv-x="614" d="M41 1044q0 21 20 21h162q12 0 21.5 9.5t9.5 21.5v479q0 24 -25 18q-34 -8 -81 -17.5t-54 -10.5q-29 -6 -33 16q-2 11 3.5 17t9 7t12.5 3l58 14.5t77.5 21t69 28t82.5 46.5q9 6 16.5 4.5t7.5 -10.5v-616q0 -12 9.5 -21.5t21.5 -9.5h125q20 0 20 -21q0 -20 -20 -20h-492 q-20 0 -20 20z" />
<glyph unicode="&#xba;" horiz-adv-x="845" d="M164 1143q0 109 76.5 189.5t183.5 80.5q106 0 182 -81t76 -189t-76 -189.5t-182 -81.5q-107 0 -183.5 81t-76.5 190zM285 1143q0 -35 1 -58.5t5 -54.5t13.5 -51t24 -39t39 -28t56.5 -9q37 0 62.5 11t40.5 29.5t23 51t10.5 65.5t2.5 83q0 42 -2 70t-9.5 63t-22 56 t-41 35.5t-64.5 14.5q-37 0 -63.5 -14t-41 -35t-22.5 -55.5t-10 -63.5t-2 -71z" />
<glyph unicode="&#xbb;" horiz-adv-x="997" d="M166.5 309.5q3.5 13.5 15.5 22.5l246 188l-246 189q-12 9 -15.5 22.5t3.5 22.5q7 10 22 11t25 -7l295 -215q14 -11 14 -23t-14 -22l-295 -215q-10 -8 -25 -7t-22 11q-7 9 -3.5 22.5zM330.5 206.5q3.5 13.5 15.5 22.5l389 291l-389 291q-12 9 -15.5 22.5t3.5 22.5 q7 10 22 11t25 -7l438 -317q15 -11 15 -23q0 -11 -15 -22l-438 -318q-10 -8 -25 -7t-22 11q-7 9 -3.5 22.5z" />
<glyph unicode="&#xbc;" horiz-adv-x="1638" d="M82 737q0 21 20 21h162q12 0 21.5 9t9.5 21v480q0 24 -25 18t-49.5 -11.5t-49 -10t-36.5 -7.5q-29 -6 -33 17q-2 10 3.5 16.5t8.5 7t13 2.5q10 3 46 11.5t58 15t56 18.5t65.5 28.5t61.5 37.5q9 6 16.5 4.5t7.5 -10.5v-617q0 -12 9.5 -21t21.5 -9h125q20 0 20 -21 q0 -20 -20 -20h-492q-20 0 -20 20zM678 18l360 1346q9 29 37 22q27 -7 21 -36l-361 -1346q-9 -29 -37 -22q-27 7 -20 36zM992 229.5q-4 10.5 3 16.5l408 448q5 5 10.5 5.5t9.5 -2.5t4 -9v-428h109q20 0 20 -20q0 -21 -20 -21h-109v-147q0 -12 9.5 -21.5t21.5 -9.5h64 q20 0 20 -21q0 -20 -20 -20h-328q-10 0 -10 15v5q0 21 20 21h60q12 0 21 9.5t9 21.5v147h-284q-14 0 -18 10.5zM1067 260h227v254z" />
<glyph unicode="&#xbd;" horiz-adv-x="1638" d="M82 737q0 21 20 21h162q12 0 21.5 9t9.5 21v480q0 24 -25 18t-49.5 -11.5t-49 -10t-36.5 -7.5q-29 -6 -33 17q-2 10 3.5 16.5t8.5 7t13 2.5q10 3 46 11.5t58 15t56 18.5t65.5 28.5t61.5 37.5q9 6 16.5 4.5t7.5 -10.5v-617q0 -12 9.5 -21t21.5 -9h125q20 0 20 -21 q0 -20 -20 -20h-492q-20 0 -20 20zM678 18l360 1346q9 29 37 22q27 -7 21 -36l-361 -1346q-9 -29 -37 -22q-27 7 -20 36zM1060.5 7q-4.5 7 4.5 18q83 75 123.5 114t88.5 89.5t70 85.5t39.5 77.5t24.5 89.5q13 87 -18 130.5t-84 43.5q-43 0 -75.5 -26.5t-35.5 -59.5 q0 -26 -12.5 -44.5t-40.5 -18.5q-22 0 -36 15.5t-13 41.5q4 53 75.5 93t145.5 40q102 0 166.5 -53t64.5 -151q0 -48 -23 -95t-67 -90.5t-83.5 -76t-96 -74.5t-82.5 -64h264q11 0 16.5 1t13 8.5t11.5 21.5l12 53q6 21 23 21q21 0 18 -27l-8 -150q-3 -20 -20 -20h-455 q-6 0 -10.5 7z" />
<glyph unicode="&#xbe;" horiz-adv-x="1638" d="M82 825q0 56 51 56q29 0 41 -19t12 -43q0 -35 30 -58.5t77 -23.5q123 0 123 178q0 74 -39.5 112t-104.5 38q-47 0 -88 -16q-27 -11 -34 10q-5 14 7.5 23.5t47.5 13.5q190 23 190 170q0 55 -27 80.5t-69 25.5q-28 0 -50 -16.5t-22 -48.5q0 -58 -51 -58q-22 0 -37.5 15.5 t-15.5 38.5q0 51 54.5 80.5t135.5 29.5q97 0 153 -40t56 -107q0 -62 -50 -104t-116 -60q77 -2 137 -55t56 -146q-5 -91 -74.5 -148t-187.5 -57q-87 0 -146 37.5t-59 91.5zM610 18l361 1346q9 29 37 22q27 -7 20 -36l-360 -1346q-9 -29 -37 -22q-27 7 -21 36zM992 229.5 q-4 10.5 3 16.5l408 448q5 5 10.5 5.5t9.5 -2.5t4 -9v-428h109q20 0 20 -20q0 -21 -20 -21h-109v-147q0 -12 9.5 -21.5t21.5 -9.5h64q20 0 20 -21q0 -20 -20 -20h-328q-10 0 -10 15v5q0 21 20 21h60q12 0 21 9.5t9 21.5v147h-284q-14 0 -18 10.5zM1067 260h227v254z" />
<glyph unicode="&#xbf;" horiz-adv-x="1040" d="M164 -195q0 -69 16.5 -123.5t43 -89.5t63 -60t73.5 -37t78 -17t73.5 -4t61.5 6q72 11 72 61q0 62 -82 62q-13 0 -44 -1.5t-55.5 -2.5t-58.5 1t-60 8t-53.5 20t-45.5 35t-29.5 54.5t-11.5 77.5q0 45 16.5 78.5t44 53.5t67.5 32t81 16.5t92 4.5q207 0 297 77t69 260 q-10 92 -58.5 177t-111.5 127q-16 9 -28 -3q-13 -13 2 -28q4 -4 18.5 -20.5t19.5 -21.5t17.5 -20t17.5 -22.5t15 -21.5t15 -25t11.5 -25t10 -28.5t6.5 -30.5q21 -125 -49.5 -178.5t-229.5 -53.5q-84 0 -148 -18t-104.5 -48t-66 -74t-35.5 -92t-10 -106zM465 772 q0 46 31.5 77.5t76.5 31.5t78 -32t33 -77t-33 -77.5t-78 -32.5q-44 0 -76 32t-32 78z" />
<glyph unicode="&#xc0;" d="M0 20q0 -20 20 -20h383q21 0 21 20q0 9 -6 15t-15 6h-178l176 471h469l174 -471h-176q-20 0 -20 -21q0 -20 20 -20h523q20 0 20 20q0 21 -20 21h-103q-46 0 -55 25l-483 1306q-16 41 -43 41q-25 0 -41 -41l-488 -1306q-9 -25 -55 -25h-103q-20 0 -20 -21zM312 1741 q-6 30 12 55q19 24 48.5 28t53.5 -16q72 -63 256 -256q9 -7 4 -16q-8 -8 -18 -2q-31 16 -153.5 75.5t-170.5 86.5q-26 15 -32 45zM420 563l219 584l213 -584h-432z" />
<glyph unicode="&#xc1;" d="M0 20q0 21 20 21h103q46 0 55 25l488 1306q16 41 41 41q27 0 43 -41l483 -1306q9 -25 55 -25h103q20 0 20 -21q0 -20 -20 -20h-523q-20 0 -20 20q0 21 20 21h176l-174 471h-469l-176 -471h178q9 0 15 -6t6 -15q0 -20 -21 -20h-383q-20 0 -20 20zM420 563h432l-213 584z M680 1538q-5 9 4 16q184 193 256 256q24 20 53.5 16t48.5 -28q18 -25 12 -55t-32 -45q-48 -27 -170.5 -86.5t-153.5 -75.5q-10 -6 -18 2z" />
<glyph unicode="&#xc2;" d="M0 20q0 21 20 21h103q46 0 55 25l488 1306q16 41 41 41q27 0 43 -41l483 -1306q9 -25 55 -25h103q20 0 20 -21q0 -20 -20 -20h-523q-20 0 -20 20q0 21 20 21h176l-174 471h-469l-176 -471h178q9 0 15 -6t6 -15q0 -20 -21 -20h-383q-20 0 -20 20zM420 563h432l-213 584z M446 1536q-10 10 5 29l225 274q14 14 33 14q18 0 32 -14l226 -274q15 -18 4 -29q-11 -8 -31 6l-231 172l-232 -172q-20 -14 -31 -6z" />
<glyph unicode="&#xc3;" d="M0 20q0 21 20 21h103q46 0 55 25l488 1306q16 41 41 41q27 0 43 -41l483 -1306q9 -25 55 -25h103q20 0 20 -21q0 -20 -20 -20h-523q-20 0 -20 20q0 21 20 21h176l-174 471h-469l-176 -471h178q9 0 15 -6t6 -15q0 -20 -21 -20h-383q-20 0 -20 20zM391 1591q21 83 71 121 t126 14q274 -81 346 -88q37 -4 44 16q7 22 -30 39q-8 4 -18 7q-78 20 -60 82q7 24 29.5 36t56.5 1q51 -17 63 -82q13 -73 -30 -133q-59 -82 -181 -60l-26 6q-207 53 -245 64q-48 18 -72.5 12.5t-50.5 -49.5q-11 -17 -19 -14q-10 4 -4 28zM420 563h432l-213 584z" />
<glyph unicode="&#xc4;" d="M0 20q0 -20 20 -20h383q21 0 21 20q0 9 -6 15t-15 6h-178l176 471h469l174 -471h-176q-20 0 -20 -21q0 -20 20 -20h523q20 0 20 20q0 21 -20 21h-103q-46 0 -55 25l-483 1306q-16 41 -43 41q-25 0 -41 -41l-488 -1306q-9 -25 -55 -25h-103q-20 0 -20 -21zM420 563 l219 584l213 -584h-432zM430 1645q0 40 26 66t64 26t64 -26t26 -66q0 -38 -26 -63.5t-64 -25.5t-64 25.5t-26 63.5zM778 1645q0 40 26 66t64 26t64 -26t26 -66q0 -38 -26 -63.5t-64 -25.5t-64 25.5t-26 63.5z" />
<glyph unicode="&#xc5;" d="M0 20q0 -20 20 -20h383q21 0 21 20q0 9 -6 15t-15 6h-178l176 471h469l174 -471h-176q-20 0 -20 -21q0 -20 20 -20h523q20 0 20 20q0 21 -20 21h-103q-46 0 -55 25l-483 1306q-16 41 -43 41q-25 0 -41 -41l-488 -1306q-9 -25 -55 -25h-103q-20 0 -20 -21zM420 563 l219 584l213 -584h-432zM520 1755q0 75 51.5 127.5t126.5 52.5t128 -52.5t53 -127.5t-53 -126.5t-128 -51.5t-126.5 51.5t-51.5 126.5zM588 1755q0 -60 27.5 -95.5t82.5 -35.5t84 36t29 95q0 60 -29 96.5t-84 36.5t-82.5 -36.5t-27.5 -96.5z" />
<glyph unicode="&#xc6;" horiz-adv-x="1882" d="M0 20q0 21 20 21h103q46 0 55 25l692 1306q20 41 41 41q13 0 32.5 -15.5t27.5 -15.5h747q21 0 21 -20v-307q0 -13 -7 -22t-18 -9q-12 0 -19 9t-7 22q0 145 -77.5 215.5t-209.5 70.5h-293q-12 0 -21.5 -9t-9.5 -21v-568h68q69 0 113 8t81 31.5t53.5 70t16.5 120.5 q0 12 7.5 21.5t19.5 9.5q24 0 24 -31l2 -492q0 -30 -24 -30q-12 0 -19.5 9t-7.5 21q0 59 -12.5 100t-32 64t-56 35.5t-72.5 16t-93 3.5h-68v-628q0 -12 9.5 -21.5t21.5 -9.5h334q131 0 212 70.5t99 216.5q4 30 25 30q22 0 22 -30l-20 -308q0 -20 -21 -20h-1044q-21 0 -21 20 q0 9 6 15t15 6h147q12 0 21.5 9.5t9.5 21.5v624h-318l-350 -655h178q9 0 15 -6t6 -15q0 -20 -21 -20h-383q-20 0 -20 20zM598 748h295v522h-16z" />
<glyph unicode="&#xc7;" horiz-adv-x="1290" d="M92 692q0 134 46 263.5t127 231t202 164t260 62.5q54 0 138 -19t159 -63q6 -3 17 -9.5t16.5 -9.5t13.5 -6t16.5 -4.5t18.5 -1.5q21 0 33 16t15.5 35.5t12 35.5t21.5 16q20 0 20 -31v-420q0 -30 -24 -30q-12 0 -19.5 9t-7.5 21q0 192 -120 296t-310 104q-78 0 -140.5 -20 t-106 -53t-76 -84t-51.5 -105t-30.5 -124t-15.5 -133.5t-4 -140.5t4 -140.5t15.5 -133.5t30.5 -124.5t51.5 -105t76 -84t106 -53.5t140.5 -20q190 0 310 103.5t120 295.5q0 12 7.5 21.5t19.5 9.5q24 0 24 -31v-420q0 -30 -20 -30q-13 0 -21.5 16t-12 35t-15.5 35t-33 16 q-13 0 -24.5 -3t-16 -5t-20.5 -11t-21 -12q-75 -44 -159 -63t-138 -19q-19 0 -55 4l-56 -116l2 -2q21 12 58 12q64 0 114 -42.5t50 -115.5q0 -86 -60.5 -135.5t-154.5 -44.5q-63 3 -113 31q-12 7 -8 18q6 8 18 2q36 -18 82 -18q56 0 89.5 38t33.5 93q0 34 -9 62t-35.5 48 t-66.5 15q-30 -4 -44 2t-12.5 17.5t7.5 25.5l62 114q-159 27 -283.5 136t-189 261.5t-64.5 317.5z" />
<glyph unicode="&#xc8;" horiz-adv-x="1280" d="M92 20q0 9 6 15t15 6h147q12 0 21.5 9.5t9.5 21.5v1239q0 12 -9.5 21t-21.5 9h-147q-9 0 -15 6t-6 15q0 20 21 20h1003q21 0 21 -20v-307q0 -13 -7 -22t-18 -9q-12 0 -19.5 9.5t-7.5 21.5q0 145 -77 215.5t-209 70.5h-293q-12 0 -21.5 -9t-9.5 -21v-568h68q69 0 113 8 t81 31.5t53.5 70t16.5 120.5q0 12 7.5 21.5t19.5 9.5q24 0 24 -31l2 -492q0 -30 -24 -30q-12 0 -19.5 9t-7.5 21q0 59 -12.5 100t-32 64t-56 35.5t-72.5 16t-93 3.5h-68v-628q0 -12 9.5 -21.5t21.5 -9.5h334q131 0 212 70.5t99 216.5q4 30 25 30q22 0 22 -30l-20 -308 q0 -20 -21 -20h-1044q-21 0 -21 20zM376 1741q-6 30 11 55q19 24 48.5 28t53.5 -16q72 -63 256 -256q9 -7 5 -16q-8 -8 -19 -2q-29 15 -151.5 75t-171.5 87q-26 15 -32 45z" />
<glyph unicode="&#xc9;" horiz-adv-x="1280" d="M92 20q0 9 6 15t15 6h147q12 0 21.5 9.5t9.5 21.5v1239q0 12 -9.5 21t-21.5 9h-147q-9 0 -15 6t-6 15q0 20 21 20h1003q21 0 21 -20v-307q0 -13 -7 -22t-18 -9q-12 0 -19.5 9.5t-7.5 21.5q0 145 -77 215.5t-209 70.5h-293q-12 0 -21.5 -9t-9.5 -21v-568h68q69 0 113 8 t81 31.5t53.5 70t16.5 120.5q0 12 7.5 21.5t19.5 9.5q24 0 24 -31l2 -492q0 -30 -24 -30q-12 0 -19.5 9t-7.5 21q0 59 -12.5 100t-32 64t-56 35.5t-72.5 16t-93 3.5h-68v-628q0 -12 9.5 -21.5t21.5 -9.5h334q131 0 212 70.5t99 216.5q4 30 25 30q22 0 22 -30l-20 -308 q0 -20 -21 -20h-1044q-21 0 -21 20zM625 1538q-5 9 4 16q184 193 256 256q24 20 53.5 16t48.5 -28q18 -25 12 -55t-32 -45q-48 -27 -170.5 -86.5t-153.5 -75.5q-10 -6 -18 2z" />
<glyph unicode="&#xca;" horiz-adv-x="1280" d="M92 20q0 9 6 15t15 6h147q12 0 21.5 9.5t9.5 21.5v1239q0 12 -9.5 21t-21.5 9h-147q-9 0 -15 6t-6 15q0 20 21 20h1003q21 0 21 -20v-307q0 -13 -7 -22t-18 -9q-12 0 -19.5 9.5t-7.5 21.5q0 145 -77 215.5t-209 70.5h-293q-12 0 -21.5 -9t-9.5 -21v-568h68q69 0 113 8 t81 31.5t53.5 70t16.5 120.5q0 12 7.5 21.5t19.5 9.5q24 0 24 -31l2 -492q0 -30 -24 -30q-12 0 -19.5 9t-7.5 21q0 59 -12.5 100t-32 64t-56 35.5t-72.5 16t-93 3.5h-68v-628q0 -12 9.5 -21.5t21.5 -9.5h334q131 0 212 70.5t99 216.5q4 30 25 30q22 0 22 -30l-20 -308 q0 -20 -21 -20h-1044q-21 0 -21 20zM418 1536q-11 11 4 29l225 274q14 14 33 14t33 -14l225 -274q15 -18 4 -29q-11 -8 -31 6l-231 172l-231 -172q-20 -14 -31 -6z" />
<glyph unicode="&#xcb;" horiz-adv-x="1280" d="M92 20q0 9 6 15t15 6h147q12 0 21.5 9.5t9.5 21.5v1239q0 12 -9.5 21t-21.5 9h-147q-9 0 -15 6t-6 15q0 20 21 20h1003q21 0 21 -20v-307q0 -13 -7 -22t-18 -9q-12 0 -19.5 9.5t-7.5 21.5q0 145 -77 215.5t-209 70.5h-293q-12 0 -21.5 -9t-9.5 -21v-568h68q69 0 113 8 t81 31.5t53.5 70t16.5 120.5q0 12 7.5 21.5t19.5 9.5q24 0 24 -31l2 -492q0 -30 -24 -30q-12 0 -19.5 9t-7.5 21q0 59 -12.5 100t-32 64t-56 35.5t-72.5 16t-93 3.5h-68v-628q0 -12 9.5 -21.5t21.5 -9.5h334q131 0 212 70.5t99 216.5q4 30 25 30q22 0 22 -30l-20 -308 q0 -20 -21 -20h-1044q-21 0 -21 20zM430 1645q0 40 26 66t64 26t64 -26t26 -66q0 -38 -26 -63.5t-64 -25.5t-64 25.5t-26 63.5zM778 1645q0 40 26 66t64 26t64 -26t26 -66q0 -38 -26 -63.5t-64 -25.5t-64 25.5t-26 63.5z" />
<glyph unicode="&#xcc;" horiz-adv-x="778" d="M74 1741q-6 30 12 55q19 24 48.5 28t53.5 -16q72 -63 256 -256q9 -7 5 -16q-8 -8 -19 -2q-31 16 -153.5 75.5t-170.5 86.5q-26 15 -32 45zM102 20q0 -20 21 -20h543q20 0 20 20q0 21 -20 21h-150q-12 0 -21.5 9.5t-9.5 21.5v1239q0 12 9.5 21t21.5 9h150q20 0 20 21 q0 20 -20 20h-543q-21 0 -21 -20q0 -9 6 -15t15 -6h147q12 0 21.5 -9t9.5 -21v-1239q0 -12 -9.5 -21.5t-21.5 -9.5h-147q-9 0 -15 -6t-6 -15z" />
<glyph unicode="&#xcd;" horiz-adv-x="778" d="M92 20q0 9 6 15t15 6h147q12 0 21.5 9.5t9.5 21.5v1239q0 12 -9.5 21t-21.5 9h-147q-9 0 -15 6t-6 15q0 20 21 20h542q21 0 21 -20q0 -9 -6 -15t-15 -6h-149q-12 0 -21.5 -9t-9.5 -21v-1239q0 -12 9.5 -21.5t21.5 -9.5h149q9 0 15 -6t6 -15q0 -20 -21 -20h-542 q-21 0 -21 20zM330 1538q-5 9 4 16q184 193 256 256q24 20 53.5 16t48.5 -28q18 -25 12 -55t-32 -45q-48 -27 -170.5 -86.5t-153.5 -75.5q-10 -6 -18 2z" />
<glyph unicode="&#xce;" horiz-adv-x="768" d="M92 20q0 9 6 15t15 6h147q12 0 21.5 9.5t9.5 21.5v1239q0 12 -9.5 21t-21.5 9h-147q-9 0 -15 6t-6 15q0 20 21 20h542q21 0 21 -20q0 -9 -6 -15t-15 -6h-149q-12 0 -21.5 -9t-9.5 -21v-1239q0 -12 9.5 -21.5t21.5 -9.5h149q9 0 15 -6t6 -15q0 -20 -21 -20h-542 q-21 0 -21 20zM117 1536q-11 11 4 29l225 274q14 14 33 14t33 -14l225 -274q15 -18 4 -29q-11 -8 -31 6l-231 172l-232 -172q-19 -14 -30 -6z" />
<glyph unicode="&#xcf;" horiz-adv-x="768" d="M92 20q0 -20 21 -20h542q21 0 21 20q0 9 -6 15t-15 6h-149q-12 0 -21.5 9.5t-9.5 21.5v1239q0 12 9.5 21t21.5 9h149q9 0 15 6t6 15q0 20 -21 20h-542q-21 0 -21 -20q0 -9 6 -15t15 -6h147q12 0 21.5 -9t9.5 -21v-1239q0 -12 -9.5 -21.5t-21.5 -9.5h-147q-9 0 -15 -6 t-6 -15zM121 1645q0 40 26 66t64 26t64 -26t26 -66q0 -38 -26 -63.5t-64 -25.5t-64 25.5t-26 63.5zM469 1645q0 40 26 66t64 26t64 -26t26 -66q0 -38 -26 -63.5t-64 -25.5t-64 25.5t-26 63.5z" />
<glyph unicode="&#xd0;" horiz-adv-x="1472" d="M92 20q0 9 6 15t15 6h147q12 0 21.5 9.5t9.5 21.5v583h-117q-14 0 -22.5 9t-8.5 22t8.5 22t22.5 9h117v594q0 12 -9.5 21t-21.5 9h-147q-9 0 -15 6t-6 15q0 20 21 20h522q187 0 331.5 -52t234 -145.5t134.5 -217t45 -271.5q0 -149 -45.5 -273.5t-134.5 -220t-233.5 -149 t-331.5 -53.5h-522q-21 0 -21 20zM475 72q0 -12 9.5 -21.5t21.5 -9.5h129q532 0 532 655q0 116 -16 210.5t-54.5 177t-98.5 138.5t-152 87.5t-211 31.5h-129q-12 0 -21.5 -9t-9.5 -21v-594h139q14 0 22.5 -9t8.5 -22t-8.5 -22t-22.5 -9h-139v-583z" />
<glyph unicode="&#xd1;" horiz-adv-x="1413" d="M72 20q0 21 20 21h150q12 0 21 9.5t9 21.5v1239q0 12 -9 21t-21 9h-150q-20 0 -20 21q0 20 20 20h332q21 0 31 -20l641 -1032h4v981q0 12 -9.5 21t-21.5 9h-147q-9 0 -15 6t-6 15q0 20 21 20h409q21 0 21 -20q0 -9 -6 -15t-15 -6h-149q-12 0 -21.5 -9t-9.5 -21v-1311 q0 -20 -21 -20q-20 0 -30 20l-772 1225h-4v-1153q0 -12 9 -21.5t21 -9.5h148q20 0 20 -21q0 -20 -20 -20h-410q-20 0 -20 20zM403 1591q21 83 71 121t126 14q274 -81 346 -88q37 -4 44 16q7 22 -30 39q-8 4 -18 7q-77 20 -59 82q7 24 29.5 36t56.5 1q51 -17 63 -82 q13 -73 -30 -133q-59 -82 -181 -60l-26 6q-215 55 -246 64q-48 18 -72.5 12.5t-50.5 -49.5q-1 -1 -2.5 -4t-2.5 -4.5t-3.5 -4t-4.5 -2t-5 0.5q-11 4 -5 28z" />
<glyph unicode="&#xd2;" horiz-adv-x="1456" d="M92 692q0 134 46 263.5t127 231t202 164t260 62.5t260.5 -62.5t202.5 -164t127.5 -231t46.5 -263.5q0 -107 -29 -212.5t-85.5 -197t-132.5 -162t-177 -111t-213 -40.5t-213 40.5t-176.5 111t-131.5 162t-85 197t-29 212.5zM303 692q0 -77 4 -140.5t15.5 -133.5 t30.5 -124.5t51.5 -105t76 -84t106 -53.5t140.5 -20q104 0 181.5 38.5t123 99t73 150t37 177.5t9.5 196q0 89 -7 163.5t-23.5 152.5t-47.5 137.5t-76.5 107.5t-114 73.5t-155.5 25.5q-78 0 -140.5 -20t-106 -53t-76 -84t-51.5 -105t-30.5 -124t-15.5 -133.5t-4 -140.5z M425 1741q-6 30 11 55q19 24 49 28t54 -16q72 -63 256 -256q9 -7 4 -16q-8 -8 -19 -2q-29 15 -151.5 75t-171.5 87q-26 15 -32 45z" />
<glyph unicode="&#xd3;" horiz-adv-x="1456" d="M92 692q0 134 46 263.5t127 231t202 164t260 62.5t260.5 -62.5t202.5 -164t127.5 -231t46.5 -263.5q0 -107 -29 -212.5t-85.5 -197t-132.5 -162t-177 -111t-213 -40.5t-213 40.5t-176.5 111t-131.5 162t-85 197t-29 212.5zM303 692q0 -77 4 -140.5t15.5 -133.5 t30.5 -124.5t51.5 -105t76 -84t106 -53.5t140.5 -20q104 0 181.5 38.5t123 99t73 150t37 177.5t9.5 196q0 89 -7 163.5t-23.5 152.5t-47.5 137.5t-76.5 107.5t-114 73.5t-155.5 25.5q-78 0 -140.5 -20t-106 -53t-76 -84t-51.5 -105t-30.5 -124t-15.5 -133.5t-4 -140.5z M680 1538q-5 9 4 16q184 193 256 256q24 20 53.5 16t48.5 -28q18 -25 12 -55t-32 -45q-48 -27 -170.5 -86.5t-153.5 -75.5q-10 -6 -18 2z" />
<glyph unicode="&#xd4;" horiz-adv-x="1456" d="M92 692q0 134 46 263.5t127 231t202 164t260 62.5t260.5 -62.5t202.5 -164t127.5 -231t46.5 -263.5q0 -107 -29 -212.5t-85.5 -197t-132.5 -162t-177 -111t-213 -40.5t-213 40.5t-176.5 111t-131.5 162t-85 197t-29 212.5zM303 692q0 -77 4 -140.5t15.5 -133.5 t30.5 -124.5t51.5 -105t76 -84t106 -53.5t140.5 -20q104 0 181.5 38.5t123 99t73 150t37 177.5t9.5 196q0 89 -7 163.5t-23.5 152.5t-47.5 137.5t-76.5 107.5t-114 73.5t-155.5 25.5q-78 0 -140.5 -20t-106 -53t-76 -84t-51.5 -105t-30.5 -124t-15.5 -133.5t-4 -140.5z M487 1536q-10 10 5 29l225 274q14 14 33 14q18 0 32 -14l226 -274q15 -18 4 -29q-11 -8 -31 6l-231 172l-232 -172q-20 -14 -31 -6z" />
<glyph unicode="&#xd5;" horiz-adv-x="1456" d="M92 692q0 134 46 263.5t127 231t202 164t260 62.5t260.5 -62.5t202.5 -164t127.5 -231t46.5 -263.5q0 -107 -29 -212.5t-85.5 -197t-132.5 -162t-177 -111t-213 -40.5t-213 40.5t-176.5 111t-131.5 162t-85 197t-29 212.5zM303 692q0 -77 4 -140.5t15.5 -133.5 t30.5 -124.5t51.5 -105t76 -84t106 -53.5t140.5 -20q104 0 181.5 38.5t123 99t73 150t37 177.5t9.5 196q0 89 -7 163.5t-23.5 152.5t-47.5 137.5t-76.5 107.5t-114 73.5t-155.5 25.5q-78 0 -140.5 -20t-106 -53t-76 -84t-51.5 -105t-30.5 -124t-15.5 -133.5t-4 -140.5z M412 1591q22 83 71 121t125 14q274 -81 346 -88q37 -4 44 16q7 22 -30 39q-8 4 -18 7q-77 20 -59 82q7 24 29.5 36t56.5 1q51 -17 63 -82q13 -73 -30 -133q-59 -82 -181 -60l-26 6q-215 55 -246 64q-48 18 -72.5 12.5t-50.5 -49.5q-1 -1 -2.5 -4t-2.5 -4.5t-3.5 -4t-4.5 -2 t-5 0.5q-10 4 -4 28z" />
<glyph unicode="&#xd6;" horiz-adv-x="1456" d="M92 692q0 134 46 263.5t127 231t202 164t260 62.5t260.5 -62.5t202.5 -164t127.5 -231t46.5 -263.5q0 -107 -29 -212.5t-85.5 -197t-132.5 -162t-177 -111t-213 -40.5t-213 40.5t-176.5 111t-131.5 162t-85 197t-29 212.5zM303 692q0 -77 4 -140.5t15.5 -133.5 t30.5 -124.5t51.5 -105t76 -84t106 -53.5t140.5 -20q104 0 181.5 38.5t123 99t73 150t37 177.5t9.5 196q0 89 -7 163.5t-23.5 152.5t-47.5 137.5t-76.5 107.5t-114 73.5t-155.5 25.5q-78 0 -140.5 -20t-106 -53t-76 -84t-51.5 -105t-30.5 -124t-15.5 -133.5t-4 -140.5z M467 1645q0 40 26 66t64 26t64 -26t26 -66q0 -38 -26 -63.5t-64 -25.5t-64 25.5t-26 63.5zM815 1645q0 40 26 66t64 26t64 -26t26 -66q0 -38 -26 -63.5t-64 -25.5t-64 25.5t-26 63.5z" />
<glyph unicode="&#xd7;" horiz-adv-x="974" d="M174 772q-22 22 0 43q8 9 20 9.5t23 -9.5l264 -264l277 274q22 21 43 0t0 -43l-275 -276l262 -262q22 -22 0 -45q-22 -21 -43 0l-264 264l-252 -254q-20 -20 -45 0q-20 25 0 45l254 252z" />
<glyph unicode="&#xd8;" horiz-adv-x="1456" d="M92 692q0 134 46 263.5t127 231t202 164t260 62.5q79 0 156 -22l30 114q9 30 37 23q12 -3 18 -13.5t3 -23.5l-33 -119q128 -51 226 -157.5t149 -242.5t51 -280q0 -107 -29 -212.5t-85.5 -197t-132.5 -162t-177 -111t-213 -40.5q-77 0 -158 23l-30 -115q-9 -29 -37 -22 q-27 7 -21 36l31 119q-127 51 -223.5 158.5t-146.5 243.5t-50 280zM303 692q0 -109 8.5 -194t31.5 -172t70 -151.5t117 -100.5l336 1257q-72 21 -139 21q-78 0 -140.5 -20t-106 -53t-76 -84t-51.5 -105t-30.5 -124t-15.5 -133.5t-4 -140.5zM584 51q59 -20 143 -20 q104 0 181.5 38.5t123 99t73 150t37 177.5t9.5 196q0 83 -5.5 153.5t-21 144.5t-40.5 131.5t-66 107t-96 78.5z" />
<glyph unicode="&#xd9;" horiz-adv-x="1462" d="M72 1362q0 -21 20 -21h148q12 0 21 -9t9 -21v-905q0 -206 115 -318q122 -119 350 -119q118 0 207.5 33.5t157.5 110.5q100 115 100 338v860q0 12 9.5 21t21.5 9h149q9 0 15 6t6 15q0 20 -21 20h-411q-21 0 -21 -20q0 -9 6 -15t15 -6h147q12 0 21.5 -9t9.5 -21v-828 q0 -110 -13.5 -184.5t-58.5 -134.5q-100 -133 -301 -133q-165 0 -244 82q-26 27 -42.5 65t-23 89t-8 85t-1.5 90v869q0 12 9 21t21 9h150q20 0 20 21q0 20 -20 20h-543q-20 0 -20 -20zM427 1741q-6 30 11 55q19 24 49 28t54 -16q72 -63 256 -256q9 -7 4 -16q-8 -8 -19 -2 q-29 15 -151.5 75t-171.5 87q-26 15 -32 45z" />
<glyph unicode="&#xda;" horiz-adv-x="1462" d="M72 1362q0 20 20 20h543q20 0 20 -20q0 -21 -20 -21h-150q-12 0 -21 -9t-9 -21v-869q0 -56 1.5 -90t8 -85t23 -89t42.5 -65q79 -82 244 -82q201 0 301 133q45 60 58.5 134.5t13.5 184.5v828q0 12 -9.5 21t-21.5 9h-147q-9 0 -15 6t-6 15q0 20 21 20h411q21 0 21 -20 q0 -9 -6 -15t-15 -6h-149q-12 0 -21.5 -9t-9.5 -21v-860q0 -223 -100 -338q-68 -77 -157.5 -110.5t-207.5 -33.5q-228 0 -350 119q-115 112 -115 318v905q0 12 -9 21t-21 9h-148q-20 0 -20 21zM776 1538q-5 9 4 16q184 193 256 256q24 20 54 16t49 -28q17 -25 11 -55 t-32 -45q-49 -27 -171.5 -87t-151.5 -75q-11 -6 -19 2z" />
<glyph unicode="&#xdb;" horiz-adv-x="1462" d="M72 1362q0 20 20 20h543q20 0 20 -20q0 -21 -20 -21h-150q-12 0 -21 -9t-9 -21v-869q0 -56 1.5 -90t8 -85t23 -89t42.5 -65q79 -82 244 -82q201 0 301 133q45 60 58.5 134.5t13.5 184.5v828q0 12 -9.5 21t-21.5 9h-147q-9 0 -15 6t-6 15q0 20 21 20h411q21 0 21 -20 q0 -9 -6 -15t-15 -6h-149q-12 0 -21.5 -9t-9.5 -21v-860q0 -223 -100 -338q-68 -77 -157.5 -110.5t-207.5 -33.5q-228 0 -350 119q-115 112 -115 318v905q0 12 -9 21t-21 9h-148q-20 0 -20 21zM537 1536q-11 11 4 29l225 274q14 14 33 14q18 0 32 -14l226 -274q15 -18 4 -29 q-11 -8 -31 6l-231 172l-232 -172q-19 -14 -30 -6z" />
<glyph unicode="&#xdc;" horiz-adv-x="1462" d="M72 1362q0 -21 20 -21h148q12 0 21 -9t9 -21v-905q0 -206 115 -318q122 -119 350 -119q118 0 207.5 33.5t157.5 110.5q100 115 100 338v860q0 12 9.5 21t21.5 9h149q9 0 15 6t6 15q0 20 -21 20h-411q-21 0 -21 -20q0 -9 6 -15t15 -6h147q12 0 21.5 -9t9.5 -21v-828 q0 -110 -13.5 -184.5t-58.5 -134.5q-100 -133 -301 -133q-165 0 -244 82q-26 27 -42.5 65t-23 89t-8 85t-1.5 90v869q0 12 9 21t21 9h150q20 0 20 21q0 20 -20 20h-543q-20 0 -20 -20zM526 1645q0 40 26 66t64 26t64.5 -26.5t26.5 -65.5q0 -38 -26.5 -63.5t-64.5 -25.5 t-64 25.5t-26 63.5zM874 1645q0 39 26 65.5t65 26.5q38 0 64 -26t26 -66q0 -38 -26 -63.5t-64 -25.5t-64.5 25.5t-26.5 63.5z" />
<glyph unicode="&#xdd;" horiz-adv-x="1282" d="M-20 1362q0 20 20 20h502q20 0 20 -20q0 -21 -20 -21h-148l353 -639l342 639h-170q-9 0 -15 6t-6 15q0 20 21 20h383q20 0 20 -20q0 -21 -20 -21h-113q-43 0 -55 -24l-357 -666v-579q0 -12 9.5 -21.5t21.5 -9.5h150q20 0 20 -21q0 -20 -20 -20h-543q-21 0 -21 20 q0 9 6 15t15 6h147q12 0 21.5 9.5t9.5 21.5v522l-395 723q-12 24 -56 24h-102q-20 0 -20 21zM645 1538q-5 9 4 16q184 193 256 256q24 20 54 16t49 -28q17 -25 11 -55t-32 -45q-49 -27 -171.5 -87t-151.5 -75q-11 -6 -19 2z" />
<glyph unicode="&#xde;" horiz-adv-x="1218" d="M92 20q0 9 6 15t15 6h147q12 0 21.5 9.5t9.5 21.5v1239q0 12 -9.5 21t-21.5 9h-147q-9 0 -15 6t-6 15q0 20 21 20h542q21 0 21 -20q0 -9 -6 -15t-15 -6h-149q-12 0 -21.5 -9t-9.5 -21v-236h150q100 0 187 -21t159 -64.5t113.5 -118.5t41.5 -175q0 -129 -69 -218 t-182 -130t-261 -41h-139v-235q0 -12 9.5 -21.5t21.5 -9.5h149q9 0 15 -6t6 -15q0 -20 -21 -20h-542q-21 0 -21 20zM475 348h119q317 0 317 348q0 175 -80 256.5t-237 81.5h-119v-686z" />
<glyph unicode="&#xdf;" horiz-adv-x="1202" d="M51 20q0 9 6 15t15 6h96q12 0 21.5 9.5t9.5 21.5v747h-127q-9 0 -15 6t-6 15q0 20 21 20h96q12 0 21.5 9.5t9.5 21.5v70q0 194 110.5 323t292.5 129q123 0 211 -62.5t88 -172.5q0 -59 -23 -109t-56.5 -84.5t-66.5 -65t-56 -66.5t-23 -75q0 -70 86 -137 q32 -24 100.5 -62.5t100.5 -60.5q75 -51 116 -109.5t41 -138.5q0 -136 -97.5 -213t-240.5 -77q-121 0 -209 59.5t-88 155.5q0 36 18 53.5t44 17.5q61 0 61 -82q0 -71 57.5 -112t122.5 -41q92 0 150.5 45t58.5 131q0 24 -9 47t-18 38t-33 36.5t-33.5 28.5t-41 28.5 t-35.5 24.5q-16 10 -77 45.5t-93 60.5q-112 87 -112 193q0 61 27 105.5t81 98.5q123 129 123 295q0 72 -51 118t-113 46q-63 0 -109.5 -26t-72.5 -65.5t-42 -97.5t-21 -110.5t-5 -116.5v-936q0 -20 -20 -20h-270q-21 0 -21 20z" />
<glyph unicode="&#xe0;" horiz-adv-x="950" d="M82 195q0 -104 63.5 -159.5t182.5 -55.5q79 0 145 33.5t105 99.5h4q23 -133 155 -133q52 0 98 25t72 79q8 15 -6 22q-15 6 -22 -8q-28 -57 -80 -57q-32 0 -47 18t-15 64v491q0 135 -77.5 201t-219.5 66q-121 0 -209 -59.5t-88 -155.5q0 -36 18 -54t44 -18q61 0 61 82 q0 72 51 118t113 46q143 0 143 -185v-225q-171 41 -317 -10q-83 -34 -128.5 -87t-45.5 -138zM126 1229q-6 30 11 55q19 24 49 28t54 -16q72 -63 256 -256q9 -7 4 -16q-8 -8 -19 -2q-29 15 -151.5 75t-171.5 87q-26 15 -32 45zM246 197q0 65 29.5 110.5t77 64t105.5 24.5 t115 -7v-201q-17 -63 -74.5 -105t-121.5 -42q-63 0 -97 45t-34 111z" />
<glyph unicode="&#xe1;" horiz-adv-x="950" d="M82 195q0 85 45.5 138t128.5 87q146 51 317 10v225q0 185 -143 185q-62 0 -113 -46t-51 -118q0 -82 -61 -82q-26 0 -44 18t-18 54q0 96 88 155.5t209 59.5q142 0 219.5 -66t77.5 -201v-491q0 -46 15 -64t47 -18q52 0 80 57q7 14 22 8q14 -7 6 -22q-26 -54 -72 -79 t-98 -25q-132 0 -155 133h-4q-39 -66 -105 -99.5t-145 -33.5q-119 0 -182.5 55.5t-63.5 159.5zM246 197q0 -66 34 -111t97 -45q64 0 121.5 42t74.5 105v201q-57 13 -115 7t-105.5 -24.5t-77 -64t-29.5 -110.5zM406 1026q-5 9 4 16q184 193 256 256q24 20 53.5 16t48.5 -28 q18 -25 12 -55t-32 -45q-48 -27 -170.5 -86.5t-153.5 -75.5q-10 -6 -18 2z" />
<glyph unicode="&#xe2;" horiz-adv-x="950" d="M82 195q0 85 45.5 138t128.5 87q146 51 317 10v225q0 185 -143 185q-62 0 -113 -46t-51 -118q0 -82 -61 -82q-26 0 -44 18t-18 54q0 96 88 155.5t209 59.5q142 0 219.5 -66t77.5 -201v-491q0 -46 15 -64t47 -18q52 0 80 57q7 14 22 8q14 -7 6 -22q-26 -54 -72 -79 t-98 -25q-132 0 -155 133h-4q-39 -66 -105 -99.5t-145 -33.5q-119 0 -182.5 55.5t-63.5 159.5zM190 1024q-10 10 5 29l225 274q14 14 33 14q18 0 32 -14l226 -274q15 -18 4 -29q-11 -8 -31 6l-231 172l-232 -172q-20 -14 -31 -6zM246 197q0 -66 34 -111t97 -45 q64 0 121.5 42t74.5 105v201q-57 13 -115 7t-105.5 -24.5t-77 -64t-29.5 -110.5z" />
<glyph unicode="&#xe3;" horiz-adv-x="950" d="M82 195q0 85 45.5 138t128.5 87q146 51 317 10v225q0 185 -143 185q-62 0 -113 -46t-51 -118q0 -82 -61 -82q-26 0 -44 18t-18 54q0 96 88 155.5t209 59.5q142 0 219.5 -66t77.5 -201v-491q0 -46 15 -64t47 -18q52 0 80 57q7 14 22 8q14 -7 6 -22q-26 -54 -72 -79 t-98 -25q-132 0 -155 133h-4q-39 -66 -105 -99.5t-145 -33.5q-119 0 -182.5 55.5t-63.5 159.5zM133 1075q21 83 71 121t126 14q274 -81 346 -88q37 -4 44 16q7 22 -30 39q-8 4 -18 7q-78 20 -60 82q7 24 29.5 36t56.5 1q51 -17 63 -82q13 -73 -30 -133q-59 -82 -181 -60 l-26 6q-207 53 -245 64q-48 18 -72.5 12.5t-50.5 -49.5q-11 -17 -19 -14q-10 4 -4 28zM246 197q0 -66 34 -111t97 -45q64 0 121.5 42t74.5 105v201q-57 13 -115 7t-105.5 -24.5t-77 -64t-29.5 -110.5z" />
<glyph unicode="&#xe4;" horiz-adv-x="950" d="M82 195q0 -104 63.5 -159.5t182.5 -55.5q79 0 145 33.5t105 99.5h4q23 -133 155 -133q52 0 98 25t72 79q8 15 -6 22q-15 6 -22 -8q-28 -57 -80 -57q-32 0 -47 18t-15 64v491q0 135 -77.5 201t-219.5 66q-121 0 -209 -59.5t-88 -155.5q0 -36 18 -54t44 -18q61 0 61 82 q0 72 51 118t113 46q143 0 143 -185v-225q-171 41 -317 -10q-83 -34 -128.5 -87t-45.5 -138zM205 1133q0 40 26 66t64 26t64 -26t26 -66q0 -38 -26 -63.5t-64 -25.5t-64 25.5t-26 63.5zM246 197q0 65 29.5 110.5t77 64t105.5 24.5t115 -7v-201q-17 -63 -74.5 -105 t-121.5 -42q-63 0 -97 45t-34 111zM553 1133q0 40 26 66t64 26t64 -26t26 -66q0 -38 -26 -63.5t-64 -25.5t-64 25.5t-26 63.5z" />
<glyph unicode="&#xe5;" horiz-adv-x="950" d="M82 195q0 -104 63.5 -159.5t182.5 -55.5q79 0 145 33.5t105 99.5h4q23 -133 155 -133q52 0 98 25t72 79q8 15 -6 22q-15 6 -22 -8q-28 -57 -80 -57q-32 0 -47 18t-15 64v491q0 135 -77.5 201t-219.5 66q-121 0 -209 -59.5t-88 -155.5q0 -36 18 -54t44 -18q61 0 61 82 q0 72 51 118t113 46q143 0 143 -185v-225q-171 41 -317 -10q-83 -34 -128.5 -87t-45.5 -138zM246 197q0 65 29.5 110.5t77 64t105.5 24.5t115 -7v-201q-17 -63 -74.5 -105t-121.5 -42q-63 0 -97 45t-34 111zM281 1243q0 75 51.5 127.5t126.5 52.5t127.5 -52.5t52.5 -127.5 t-52.5 -126.5t-127.5 -51.5t-126.5 51.5t-51.5 126.5zM348 1243q0 -60 28 -95.5t83 -35.5t83.5 36t28.5 95q0 60 -28.5 96.5t-83.5 36.5t-83 -36.5t-28 -96.5z" />
<glyph unicode="&#xe6;" horiz-adv-x="1419" d="M82 195q0 85 45.5 138t128.5 87q146 51 317 10v225q0 185 -143 185q-62 0 -113 -46t-51 -118q0 -82 -61 -82q-26 0 -44 18t-18 54q0 96 88 155.5t209 59.5q200 0 267 -125q104 125 268 125q108 0 193 -51.5t124 -143.5q38 -89 33 -164q0 -20 -20 -20h-562q-7 -134 7 -228 q39 -237 245 -237q94 0 163 41.5t106 101.5q12 19 30 10q16 -9 6 -30q-44 -79 -126.5 -129.5t-178.5 -50.5q-123 0 -210 51t-134 143q-28 -56 -70 -96.5t-88 -60.5t-86 -28.5t-79 -8.5q-119 0 -182.5 55.5t-63.5 159.5zM246 197q0 -66 34 -111t97 -45q34 0 66.5 10.5 t62.5 33.5t48.5 67.5t18.5 105.5v131q-57 13 -115 7t-105.5 -24.5t-77 -64t-29.5 -110.5zM750 553h389q8 39 8 86q0 93 -42 144t-126 51q-58 0 -101.5 -24t-69.5 -65t-40 -88.5t-18 -103.5z" />
<glyph unicode="&#xe7;" horiz-adv-x="903" d="M102 428q0 191 120 322t304 131q121 0 209 -59.5t88 -155.5q0 -36 -17.5 -54t-43.5 -18q-62 0 -62 82q0 72 -50.5 118t-112.5 46q-63 0 -109.5 -26t-72.5 -65.5t-42 -97.5t-21 -110.5t-5 -116.5q0 -185 57 -286t188 -101q171 0 259 143q12 19 30 10q16 -9 6 -30 q-44 -79 -126.5 -129.5t-178.5 -50.5q-20 0 -30 2l-60 -125l2 -2q21 12 58 12q64 0 113.5 -42.5t49.5 -115.5q0 -86 -60.5 -135.5t-154.5 -44.5q-62 3 -112 31q-12 8 -9 18q6 9 19 2q36 -18 82 -18q56 0 89.5 38t33.5 93q0 34 -9 62t-35.5 48t-66.5 15q-30 -4 -44 2 t-12.5 17.5t7.5 25.5l66 123q-162 22 -254.5 140t-92.5 302z" />
<glyph unicode="&#xe8;" horiz-adv-x="966" d="M102 428q0 -196 122 -322t319 -126q96 0 178.5 50.5t126.5 129.5q10 21 -6 30q-19 10 -31 -10q-37 -60 -105.5 -101.5t-162.5 -41.5q-207 0 -246 237q-13 89 -6 228h561q20 0 20 20q5 77 -32 164q-39 92 -124.5 143.5t-193.5 51.5q-116 0 -214 -64.5t-152 -168.5 t-54 -220zM247 1229q-6 30 11 55q19 24 48.5 28t53.5 -16q72 -63 256 -256q9 -7 5 -16q-8 -8 -19 -2q-29 15 -151.5 75t-171.5 87q-26 15 -32 45zM297 553q4 56 18 103.5t40 88.5t69.5 65t101.5 24q84 0 126 -51t42 -144q0 -47 -8 -86h-389z" />
<glyph unicode="&#xe9;" horiz-adv-x="966" d="M102 428q0 116 54 220t152 168.5t214 64.5q108 0 193.5 -51.5t124.5 -143.5q37 -87 32 -164q0 -20 -20 -20h-561q-7 -139 6 -228q39 -237 246 -237q94 0 162.5 41.5t105.5 101.5q12 20 31 10q16 -9 6 -30q-44 -79 -126.5 -129.5t-178.5 -50.5q-197 0 -319 126t-122 322z M297 553h389q8 39 8 86q0 93 -42 144t-126 51q-58 0 -101.5 -24t-69.5 -65t-40 -88.5t-18 -103.5zM461 1026q-5 9 4 16q184 193 256 256q24 20 53.5 16t48.5 -28q18 -25 12 -55t-32 -45q-48 -27 -170.5 -86.5t-153.5 -75.5q-10 -6 -18 2z" />
<glyph unicode="&#xea;" horiz-adv-x="966" d="M102 428q0 116 54 220t152 168.5t214 64.5q108 0 193.5 -51.5t124.5 -143.5q37 -87 32 -164q0 -20 -20 -20h-561q-7 -139 6 -228q39 -237 246 -237q94 0 162.5 41.5t105.5 101.5q12 20 31 10q16 -9 6 -30q-44 -79 -126.5 -129.5t-178.5 -50.5q-197 0 -319 126t-122 322z M258 1024q-11 11 4 29l225 274q14 14 33 14t33 -14l225 -274q15 -18 4 -29q-11 -8 -30 6l-232 172l-231 -172q-20 -14 -31 -6zM297 553h389q8 39 8 86q0 93 -42 144t-126 51q-58 0 -101.5 -24t-69.5 -65t-40 -88.5t-18 -103.5z" />
<glyph unicode="&#xeb;" horiz-adv-x="966" d="M102 428q0 -196 122 -322t319 -126q96 0 178.5 50.5t126.5 129.5q10 21 -6 30q-19 10 -31 -10q-37 -60 -105.5 -101.5t-162.5 -41.5q-207 0 -246 237q-13 89 -6 228h561q20 0 20 20q5 77 -32 164q-39 92 -124.5 143.5t-193.5 51.5q-116 0 -214 -64.5t-152 -168.5 t-54 -220zM260 1133q0 40 26 66t64 26t64 -26t26 -66q0 -38 -26 -63.5t-64 -25.5t-64 25.5t-26 63.5zM297 553q4 56 18 103.5t40 88.5t69.5 65t101.5 24q84 0 126 -51t42 -144q0 -47 -8 -86h-389zM608 1133q0 40 26 66t64 26t64 -26t26 -66q0 -38 -26 -63.5t-64 -25.5 t-64 25.5t-26 63.5z" />
<glyph unicode="&#xec;" horiz-adv-x="598" d="M-69 1229q-6 30 12 55q19 24 48.5 28t53.5 -16q72 -63 256 -256q9 -7 4 -16q-8 -8 -18 -2q-31 16 -153.5 75.5t-170.5 86.5q-26 15 -32 45zM80 795q2 -8 8.5 -12t13.5 -3l99 17q12 2 22 -5.5t10 -19.5v-700q0 -12 -9 -21.5t-21 -9.5h-97q-20 0 -20 -21q0 -20 20 -20h420 q21 0 21 20q0 9 -6 15t-15 6h-98q-12 0 -21.5 9.5t-9.5 21.5v741q0 22 13 27q19 7 14 24q-6 16 -23 13l-307 -60q-17 -3 -14 -22z" />
<glyph unicode="&#xed;" horiz-adv-x="583" d="M63 795q-3 18 15 22l307 60q17 3 23 -13q5 -16 -15 -24q-12 -5 -12 -27v-741q0 -12 9.5 -21.5t21.5 -9.5h98q20 0 20 -21q0 -20 -20 -20h-420q-20 0 -20 20q0 21 20 21h96q12 0 21.5 9.5t9.5 21.5v700q0 12 -10.5 19.5t-22.5 5.5l-98 -17q-8 -2 -15 3t-8 12zM217 1026 q-5 9 4 16q184 193 256 256q24 20 54 16t49 -28q17 -25 11 -55t-32 -45q-49 -27 -171.5 -87t-151.5 -75q-11 -6 -19 2z" />
<glyph unicode="&#xee;" horiz-adv-x="589" d="M33 1024q-11 11 4 29l225 274q14 14 33 14t33 -14l225 -274q15 -18 4 -29q-11 -8 -31 6l-231 172l-232 -172q-19 -14 -30 -6zM70 795q-3 19 14 22l307 60q17 3 23 -13q5 -16 -15 -24q-12 -5 -12 -27v-741q0 -12 9.5 -21.5t21.5 -9.5h98q9 0 15 -6t6 -15q0 -20 -21 -20 h-420q-20 0 -20 20q0 21 20 21h97q12 0 21 9.5t9 21.5v700q0 12 -10.5 19.5t-22.5 5.5l-98 -17q-7 -1 -13.5 3t-8.5 12z" />
<glyph unicode="&#xef;" horiz-adv-x="593" d="M25 1133q0 40 26 66t64 26t64 -26t26 -66q0 -38 -26 -63.5t-64 -25.5t-64 25.5t-26 63.5zM76 795q2 -8 8.5 -12t13.5 -3l99 17q12 2 22 -5.5t10 -19.5v-700q0 -12 -9 -21.5t-21 -9.5h-97q-20 0 -20 -21q0 -20 20 -20h420q21 0 21 20q0 9 -6 15t-15 6h-98q-12 0 -21.5 9.5 t-9.5 21.5v741q0 22 13 27q19 7 14 24q-6 16 -23 13l-307 -60q-17 -3 -14 -22zM373 1133q0 40 26 66t64 26t64 -26t26 -66q0 -38 -26 -63.5t-64 -25.5t-64 25.5t-26 63.5z" />
<glyph unicode="&#xf0;" horiz-adv-x="1095" d="M102 399q0 172 122.5 296t297.5 124q82 0 159 -38.5t116 -104.5h4q-19 173 -80 348h-178q-14 0 -22.5 9t-8.5 22t8.5 21.5t22.5 8.5h153q-52 125 -124 201t-162 76q-111 0 -111 -154q0 -82 -61 -82q-26 0 -44 18t-18 54q0 96 69 155.5t165 59.5q143 0 256 -89t190 -239 h188q14 0 22.5 -8.5t8.5 -21.5t-8.5 -22t-22.5 -9h-159q98 -236 98 -471q0 -84 -17 -166t-53.5 -158t-88.5 -133.5t-127.5 -92t-164.5 -34.5q-180 0 -305 127t-125 303zM287 399q0 -43 1.5 -76t7.5 -74.5t16 -72t28.5 -61.5t43.5 -50.5t63 -32t85 -12.5q58 0 103.5 18.5 t74 53t48 74.5t29 91.5t13 96t3.5 95.5q0 92 -28 161.5t-92.5 113.5t-160.5 44q-235 0 -235 -369z" />
<glyph unicode="&#xf1;" horiz-adv-x="1175" d="M53 795q-3 18 15 22l307 60q17 3 22 -13q5 -17 -14 -24q-12 -5 -12 -27v-168h4q39 102 123 169t194 67q135 0 209 -74.5t74 -212.5v-522q0 -12 9.5 -21.5t21.5 -9.5h98q20 0 20 -21q0 -20 -20 -20h-420q-20 0 -20 20q0 21 20 21h96q12 0 21.5 9.5t9.5 21.5v583 q0 174 -133 174q-74 0 -134 -39.5t-97 -104t-56.5 -141t-19.5 -155.5v-317q0 -12 9 -21.5t21 -9.5h99q20 0 20 -21q0 -20 -20 -20h-420q-21 0 -21 20q0 9 6 15t15 6h96q12 0 21.5 9.5t9.5 21.5v700q0 12 -10.5 19.5t-22.5 5.5l-98 -17q-8 -2 -15 3t-8 12zM295 1075 q21 83 71 121t126 14q274 -81 346 -88q37 -4 44 16q7 22 -30 39q-8 4 -18 7q-78 20 -60 82q7 24 29.5 36t56.5 1q51 -17 63 -82q13 -73 -30 -133q-59 -82 -181 -60l-26 6q-215 55 -246 64q-48 18 -72.5 12.5t-50.5 -49.5q-1 -1 -2.5 -4t-2.5 -4.5t-3.5 -4t-4.5 -2t-5 0.5 q-10 4 -4 28z" />
<glyph unicode="&#xf2;" horiz-adv-x="1075" d="M102 430q0 -183 128 -316.5t309 -133.5q118 0 218 61.5t158 165.5t58 223t-58 222.5t-158.5 166t-217.5 62.5q-179 0 -308 -133.5t-129 -317.5zM263 1229q-6 30 11 55q19 24 49 28t54 -16q72 -63 256 -256q9 -7 4 -16q-8 -8 -19 -2q-29 15 -151.5 75t-171.5 87 q-26 15 -32 45zM287 430q0 65 5.5 118t22 107t43.5 91t73 60t108 23q63 0 109 -24t72.5 -61t42 -92.5t20.5 -106.5t5 -115q0 -80 -6 -137.5t-22 -109.5t-43 -83.5t-71.5 -50t-106.5 -18.5q-64 0 -111 24t-73.5 61t-42 92.5t-20.5 106.5t-5 115z" />
<glyph unicode="&#xf3;" horiz-adv-x="1075" d="M102 430q0 184 129 317.5t308 133.5q117 0 217.5 -62.5t158.5 -166t58 -222.5t-58 -223t-158 -165.5t-218 -61.5q-181 0 -309 133.5t-128 316.5zM287 430q0 -64 5 -115t20.5 -106.5t42 -92.5t73.5 -61t111 -24q62 0 106.5 18.5t71.5 50t43 83.5t22 109.5t6 137.5 q0 64 -5 115t-20.5 106.5t-42 92.5t-72.5 61t-109 24q-62 0 -108 -23t-73 -60t-43.5 -91t-22 -107t-5.5 -118zM461 1026q-5 9 4 16q184 193 256 256q24 20 53.5 16t48.5 -28q18 -25 12 -55t-32 -45q-48 -27 -170.5 -86.5t-153.5 -75.5q-10 -6 -18 2z" />
<glyph unicode="&#xf4;" horiz-adv-x="1075" d="M102 430q0 184 129 317.5t308 133.5q117 0 217.5 -62.5t158.5 -166t58 -222.5t-58 -223t-158 -165.5t-218 -61.5q-181 0 -309 133.5t-128 316.5zM281 1024q-11 11 4 29l225 274q14 14 33 14q18 0 32 -14l226 -274q15 -18 4 -29q-11 -8 -31 6l-231 172l-232 -172 q-19 -14 -30 -6zM287 430q0 -64 5 -115t20.5 -106.5t42 -92.5t73.5 -61t111 -24q62 0 106.5 18.5t71.5 50t43 83.5t22 109.5t6 137.5q0 64 -5 115t-20.5 106.5t-42 92.5t-72.5 61t-109 24q-62 0 -108 -23t-73 -60t-43.5 -91t-22 -107t-5.5 -118z" />
<glyph unicode="&#xf5;" horiz-adv-x="1075" d="M102 430q0 184 129 317.5t308 133.5q117 0 217.5 -62.5t158.5 -166t58 -222.5t-58 -223t-158 -165.5t-218 -61.5q-181 0 -309 133.5t-128 316.5zM244 1075q22 83 71 121t125 14q274 -81 346 -88q37 -4 44 16q7 22 -30 39q-8 4 -18 7q-77 20 -59 82q7 24 29.5 36t56.5 1 q51 -17 63 -82q13 -73 -30 -133q-59 -82 -181 -60l-26 6q-215 55 -246 64q-48 18 -72.5 12.5t-50.5 -49.5q-1 -1 -2.5 -4t-2.5 -4.5t-3.5 -4t-4.5 -2t-5 0.5q-10 4 -4 28zM287 430q0 -64 5 -115t20.5 -106.5t42 -92.5t73.5 -61t111 -24q62 0 106.5 18.5t71.5 50t43 83.5 t22 109.5t6 137.5q0 64 -5 115t-20.5 106.5t-42 92.5t-72.5 61t-109 24q-62 0 -108 -23t-73 -60t-43.5 -91t-22 -107t-5.5 -118z" />
<glyph unicode="&#xf6;" horiz-adv-x="1075" d="M102 430q0 -183 128 -316.5t309 -133.5q118 0 218 61.5t158 165.5t58 223t-58 222.5t-158.5 166t-217.5 62.5q-179 0 -308 -133.5t-129 -317.5zM287 430q0 65 5.5 118t22 107t43.5 91t73 60t108 23q63 0 109 -24t72.5 -61t42 -92.5t20.5 -106.5t5 -115q0 -80 -6 -137.5 t-22 -109.5t-43 -83.5t-71.5 -50t-106.5 -18.5q-64 0 -111 24t-73.5 61t-42 92.5t-20.5 106.5t-5 115zM303 1133q0 40 26 66t64 26t64 -26t26 -66q0 -38 -26 -63.5t-64 -25.5t-64 25.5t-26 63.5zM651 1133q0 40 26 66t64 26t64 -26t26 -66q0 -38 -26 -63.5t-64 -25.5 t-64 25.5t-26 63.5z" />
<glyph unicode="&#xf7;" horiz-adv-x="1198" d="M164 502q0 13 8.5 21.5t22.5 8.5h809q14 0 22 -8.5t8 -21.5t-8 -22t-22 -9h-809q-14 0 -22.5 9t-8.5 22zM485 201q0 43 28.5 71.5t70.5 28.5q41 0 69.5 -28.5t28.5 -71.5q0 -41 -28.5 -69t-69.5 -28t-70 28t-29 69zM485 801q0 43 28.5 71.5t70.5 28.5q41 0 69.5 -28.5 t28.5 -71.5q0 -41 -28.5 -68.5t-69.5 -27.5q-42 0 -70.5 27.5t-28.5 68.5z" />
<glyph unicode="&#xf8;" horiz-adv-x="1075" d="M102 430q0 184 129 317.5t308 133.5q18 0 79 -9l35 125q9 30 37 23q12 -3 18 -13.5t3 -23.5l-35 -127q130 -46 213.5 -165t83.5 -261q0 -119 -58 -223t-158 -165.5t-218 -61.5q-53 0 -99 12l-28 -111q-9 -29 -37 -22q-12 3 -18 13.5t-3 23.5l31 112q-126 50 -204.5 166 t-78.5 256zM287 430q0 -128 22.5 -217.5t89.5 -146.5l205 755q-40 8 -65 8q-62 0 -108 -23t-73 -60t-43.5 -91t-22 -107t-5.5 -118zM455 41q42 -10 84 -10q62 0 106.5 18.5t71.5 50t43 83.5t22 109.5t6 137.5q0 294 -129 369z" />
<glyph unicode="&#xf9;" horiz-adv-x="1177" d="M53 795q1 -7 8 -12t15 -3l98 17q12 2 22.5 -5.5t10.5 -19.5v-506q0 -138 73.5 -212t208.5 -74q108 0 182.5 65t114.5 170h5v-61q0 -84 41 -129t118 -45q52 0 100 25t74 79q8 15 -6 22q-15 6 -22 -8q-28 -57 -80 -57q-32 0 -47 18t-15 64v717q0 20 -20 20h-270 q-21 0 -21 -20q0 -9 6 -15t15 -6h96q12 0 21.5 -9.5t9.5 -21.5v-317q0 -80 -16.5 -155.5t-49.5 -140.5t-90 -104.5t-131 -39.5q-133 0 -133 174v608q0 22 12 27q19 7 14 24q-5 16 -22 13l-307 -60q-18 -4 -15 -22zM285 1229q-6 30 12 55q19 24 48.5 28t53.5 -16 q72 -63 256 -256q9 -7 4 -16q-8 -8 -18 -2q-31 16 -153.5 75.5t-170.5 86.5q-26 15 -32 45z" />
<glyph unicode="&#xfa;" horiz-adv-x="1177" d="M53 795q-3 18 15 22l307 60q17 3 22 -13q5 -17 -14 -24q-12 -5 -12 -27v-608q0 -174 133 -174q74 0 131 39.5t90 104.5t49.5 140.5t16.5 155.5v317q0 12 -9.5 21.5t-21.5 9.5h-96q-9 0 -15 6t-6 15q0 20 21 20h270q20 0 20 -20v-717q0 -46 15 -64t47 -18q52 0 80 57 q7 14 22 8q14 -7 6 -22q-26 -54 -74 -79t-100 -25q-77 0 -118 45t-41 129v61h-5q-40 -105 -114.5 -170t-182.5 -65q-135 0 -208.5 74t-73.5 212v506q0 12 -10.5 19.5t-22.5 5.5l-98 -17q-8 -2 -15 3t-8 12zM502 1026q-5 9 4 16q184 193 256 256q24 20 53.5 16t48.5 -28 q18 -25 12 -55t-32 -45q-48 -27 -170.5 -86.5t-153.5 -75.5q-10 -6 -18 2z" />
<glyph unicode="&#xfb;" horiz-adv-x="1177" d="M53 795q-3 18 15 22l307 60q17 3 22 -13q5 -17 -14 -24q-12 -5 -12 -27v-608q0 -174 133 -174q74 0 131 39.5t90 104.5t49.5 140.5t16.5 155.5v317q0 12 -9.5 21.5t-21.5 9.5h-96q-9 0 -15 6t-6 15q0 20 21 20h270q20 0 20 -20v-717q0 -46 15 -64t47 -18q52 0 80 57 q7 14 22 8q14 -7 6 -22q-26 -54 -74 -79t-100 -25q-77 0 -118 45t-41 129v61h-5q-40 -105 -114.5 -170t-182.5 -65q-135 0 -208.5 74t-73.5 212v506q0 12 -10.5 19.5t-22.5 5.5l-98 -17q-8 -2 -15 3t-8 12zM299 1024q-11 11 4 29l225 274q14 14 33 14t33 -14l225 -274 q15 -18 4 -29q-11 -8 -30 6l-232 172l-231 -172q-20 -14 -31 -6z" />
<glyph unicode="&#xfc;" horiz-adv-x="1177" d="M53 795q1 -7 8 -12t15 -3l98 17q12 2 22.5 -5.5t10.5 -19.5v-506q0 -138 73.5 -212t208.5 -74q108 0 182.5 65t114.5 170h5v-61q0 -84 41 -129t118 -45q52 0 100 25t74 79q8 15 -6 22q-15 6 -22 -8q-28 -57 -80 -57q-32 0 -47 18t-15 64v717q0 20 -20 20h-270 q-21 0 -21 -20q0 -9 6 -15t15 -6h96q12 0 21.5 -9.5t9.5 -21.5v-317q0 -80 -16.5 -155.5t-49.5 -140.5t-90 -104.5t-131 -39.5q-133 0 -133 174v608q0 22 12 27q19 7 14 24q-5 16 -22 13l-307 -60q-18 -4 -15 -22zM305 1133q0 40 26 66t64 26t64 -26t26 -66q0 -38 -26 -63.5 t-64 -25.5t-64 25.5t-26 63.5zM653 1133q0 40 26 66t64 26q39 0 65 -26.5t26 -65.5q0 -38 -26.5 -63.5t-64.5 -25.5t-64 25.5t-26 63.5z" />
<glyph unicode="&#xfd;" horiz-adv-x="987" d="M-20 840q0 20 20 20h410q20 0 20 -20q0 -21 -20 -21h-117l237 -622l248 622h-123q-20 0 -20 21q0 20 20 20h312q20 0 20 -20q0 -21 -20 -21h-93q-43 0 -55 -24l-518 -1287h125q20 0 20 -20t-20 -20h-317q-21 0 -21 20t21 20h96q43 0 55 25l180 455l-313 807q-9 24 -55 24 h-72q-20 0 -20 21zM477 1026q-5 9 4 16q184 193 256 256q24 20 54 16t49 -28q17 -25 11 -55t-32 -45q-49 -27 -171.5 -87t-151.5 -75q-11 -6 -19 2z" />
<glyph unicode="&#xfe;" horiz-adv-x="1124" d="M53 1307q-3 18 15 22l307 60q17 3 22 -13q5 -17 -14 -24q-12 -5 -12 -27v-670h4q34 98 110.5 162t178.5 64q175 0 266.5 -118.5t91.5 -322.5q0 -125 -48 -229t-143 -167.5t-219 -63.5q-130 0 -235 102h-6v-543q0 -12 9 -21.5t21 -9.5h99q20 0 20 -20t-20 -20h-420 q-21 0 -21 20t21 20h96q12 0 21.5 9.5t9.5 21.5v1745q0 12 -10.5 19.5t-22.5 5.5l-98 -17q-8 -2 -15 3t-8 12zM371 154q49 -57 103.5 -90t137.5 -33q45 0 80.5 14.5t58.5 37t40 59t26 70t14 80t6 80t1 79.5q0 43 -4 85t-17 95.5t-34 93t-60 67t-90 27.5q-62 0 -113.5 -39 t-83 -100.5t-48.5 -132t-17 -137.5v-256z" />
<glyph unicode="&#xff;" horiz-adv-x="987" d="M-20 840q0 20 20 20h410q20 0 20 -20q0 -21 -20 -21h-117l237 -622l248 622h-123q-20 0 -20 21q0 20 20 20h312q20 0 20 -20q0 -21 -20 -21h-93q-43 0 -55 -24l-518 -1287h125q20 0 20 -20t-20 -20h-317q-21 0 -21 20t21 20h96q43 0 55 25l180 455l-313 807q-9 24 -55 24 h-72q-20 0 -20 21zM258 1133q0 40 26 66t64 26t64 -26t26 -66q0 -38 -26 -63.5t-64 -25.5t-64 25.5t-26 63.5zM606 1133q0 40 26 66t64 26t64 -26t26 -66q0 -38 -26 -63.5t-64 -25.5t-64 25.5t-26 63.5z" />
<glyph unicode="&#x152;" horiz-adv-x="1849" d="M92 692q0 134 46 263.5t127 231t202 164t260 62.5q53 0 120 -9t95 -22h744q20 0 20 -20v-307q0 -13 -7 -22t-18 -9q-12 0 -19 9t-7 22q0 145 -77.5 215.5t-209.5 70.5h-293q-12 0 -21.5 -9t-9.5 -21v-568h68q69 0 113 8t81 31.5t53.5 70t16.5 120.5q0 12 7.5 21.5 t19.5 9.5q24 0 24 -31l3 -492q0 -13 -6.5 -21.5t-18.5 -8.5t-19.5 9t-7.5 21q0 59 -12.5 100t-32 64t-56 35.5t-72.5 16t-93 3.5h-68v-628q0 -12 9.5 -21.5t21.5 -9.5h334q131 0 212 70.5t99 216.5q4 30 25 30q22 0 22 -30l-20 -308q0 -20 -21 -20h-784q-28 -13 -95 -22 t-120 -9q-112 0 -213 40.5t-176.5 111t-131.5 162t-85 197t-29 212.5zM303 692q0 -77 4 -140.5t15.5 -133.5t30.5 -124.5t51.5 -105t76 -84t106 -53.5t140.5 -20q67 0 117 16q16 10 16 25v1239q0 16 -16 22q-49 19 -117 19q-78 0 -140.5 -20t-106 -53t-76 -84t-51.5 -105 t-30.5 -124t-15.5 -133.5t-4 -140.5z" />
<glyph unicode="&#x153;" horiz-adv-x="1654" d="M102 430q0 184 129 317.5t308 133.5q100 0 189 -47.5t151 -128.5q59 81 145 128.5t186 47.5q108 0 193.5 -51.5t124.5 -143.5q38 -89 33 -164q0 -20 -21 -20h-561q-7 -139 6 -228q39 -237 246 -237q94 0 162.5 41.5t105.5 101.5q12 20 31 10q16 -9 6 -30 q-44 -79 -126.5 -129.5t-178.5 -50.5q-115 0 -206 44.5t-151 125.5q-62 -79 -149 -124.5t-186 -45.5q-181 0 -309 133.5t-128 316.5zM287 430q0 -64 5 -115t20.5 -106.5t42 -92.5t73.5 -61t111 -24q62 0 106.5 18.5t71.5 50t43 83.5t22 109.5t6 137.5q0 64 -5 115 t-20.5 106.5t-42 92.5t-72.5 61t-109 24q-62 0 -108 -23t-73 -60t-43.5 -91t-22 -107t-5.5 -118zM985 553h389q8 39 8 86q0 93 -42 144t-126 51q-58 0 -101.5 -24t-69.5 -65t-40 -88.5t-18 -103.5z" />
<glyph unicode="&#x178;" horiz-adv-x="1282" d="M-20 1362q0 -21 20 -21h102q44 0 56 -24l395 -723v-522q0 -12 -9.5 -21.5t-21.5 -9.5h-147q-9 0 -15 -6t-6 -15q0 -20 21 -20h543q20 0 20 20q0 21 -20 21h-150q-12 0 -21.5 9.5t-9.5 21.5v579l357 666q12 24 55 24h113q20 0 20 21q0 20 -20 20h-383q-21 0 -21 -20 q0 -9 6 -15t15 -6h170l-342 -639l-353 639h148q20 0 20 21q0 20 -20 20h-502q-20 0 -20 -20zM408 1645q0 40 26 66t64 26t64 -26t26 -66q0 -38 -26 -63.5t-64 -25.5t-64 25.5t-26 63.5zM756 1645q0 40 26 66t64 26t64 -26t26 -66q0 -38 -26 -63.5t-64 -25.5t-64 25.5 t-26 63.5z" />
<glyph unicode="&#x2c6;" horiz-adv-x="864" d="M170 1024q-11 11 4 29l225 274q14 14 33 14t33 -14l225 -274q15 -18 4 -29q-11 -8 -30 6l-232 172l-231 -172q-20 -14 -31 -6z" />
<glyph unicode="&#x2dc;" horiz-adv-x="962" d="M168 1075q21 83 71 121t126 14q274 -81 346 -88q37 -4 44 16q7 22 -30 39q-8 4 -18 7q-78 20 -60 82q7 24 29.5 36t56.5 1q51 -17 63 -82q13 -73 -30 -133q-59 -82 -181 -60l-26 6q-215 55 -246 64q-48 18 -72.5 12.5t-50.5 -49.5q-1 -1 -2.5 -4t-2.5 -4.5t-3.5 -4 t-4.5 -2t-5 0.5q-10 4 -4 28z" />
<glyph unicode="&#x2000;" horiz-adv-x="967" />
<glyph unicode="&#x2001;" horiz-adv-x="1935" />
<glyph unicode="&#x2002;" horiz-adv-x="967" />
<glyph unicode="&#x2003;" horiz-adv-x="1935" />
<glyph unicode="&#x2004;" horiz-adv-x="645" />
<glyph unicode="&#x2005;" horiz-adv-x="483" />
<glyph unicode="&#x2006;" horiz-adv-x="322" />
<glyph unicode="&#x2007;" horiz-adv-x="322" />
<glyph unicode="&#x2008;" horiz-adv-x="241" />
<glyph unicode="&#x2009;" horiz-adv-x="387" />
<glyph unicode="&#x200a;" horiz-adv-x="107" />
<glyph unicode="&#x2010;" horiz-adv-x="1054" d="M164 502q0 13 8.5 21.5t22.5 8.5h665q14 0 22.5 -8.5t8.5 -21.5t-8.5 -22t-22.5 -9h-665q-14 0 -22.5 9t-8.5 22z" />
<glyph unicode="&#x2011;" horiz-adv-x="1054" d="M164 502q0 13 8.5 21.5t22.5 8.5h665q14 0 22.5 -8.5t8.5 -21.5t-8.5 -22t-22.5 -9h-665q-14 0 -22.5 9t-8.5 22z" />
<glyph unicode="&#x2012;" horiz-adv-x="1054" d="M164 502q0 13 8.5 21.5t22.5 8.5h665q14 0 22.5 -8.5t8.5 -21.5t-8.5 -22t-22.5 -9h-665q-14 0 -22.5 9t-8.5 22z" />
<glyph unicode="&#x2013;" horiz-adv-x="1402" d="M164 502q0 13 8.5 21.5t22.5 8.5h1013q14 0 22.5 -8.5t8.5 -21.5t-8.5 -22t-22.5 -9h-1013q-14 0 -22.5 9t-8.5 22z" />
<glyph unicode="&#x2014;" horiz-adv-x="1914" d="M164 502q0 13 8.5 21.5t22.5 8.5h1525q14 0 22.5 -8.5t8.5 -21.5t-8.5 -22t-22.5 -9h-1525q-14 0 -22.5 9t-8.5 22z" />
<glyph unicode="&#x2018;" horiz-adv-x="571" d="M164 1083q0 58 16 113.5t61.5 107.5t114.5 68q20 4 23 -12q1 -7 -4 -13t-13 -8q-39 -10 -75 -40.5t-56 -79.5q-19 -46 -19.5 -96t11.5 -64q9 28 32 44.5t52 16.5q43 0 72 -31t29 -69q0 -43 -29 -75.5t-80 -35.5q-69 0 -102 48.5t-33 125.5z" />
<glyph unicode="&#x2019;" horiz-adv-x="571" d="M164 1262q0 43 28.5 75t79.5 35q69 0 102.5 -48.5t33.5 -125.5q0 -58 -16.5 -114t-62 -107.5t-114.5 -67.5q-19 -4 -22 13q-3 16 16 20q39 10 75 41t56 80q19 46 19.5 96t-11.5 64q-9 -28 -32 -45t-52 -17q-43 0 -71.5 31t-28.5 70z" />
<glyph unicode="&#x201a;" horiz-adv-x="571" d="M164 86q0 43 28.5 75.5t79.5 35.5q69 0 102.5 -48.5t33.5 -125.5q0 -58 -16.5 -114t-62 -107.5t-114.5 -67.5q-19 -4 -22 12q-3 17 16 21q39 10 75 40.5t56 79.5q19 46 19.5 96t-11.5 64q-9 -28 -32 -44.5t-52 -16.5q-43 0 -71.5 30.5t-28.5 69.5z" />
<glyph unicode="&#x201c;" horiz-adv-x="919" d="M164 1083q0 58 16 113.5t61.5 107.5t114.5 68q20 4 23 -12q1 -7 -4 -13t-13 -8q-39 -10 -75 -40.5t-56 -79.5q-19 -46 -19.5 -96t11.5 -64q9 28 32 44.5t52 16.5q43 0 72 -31t29 -69q0 -43 -29 -75.5t-80 -35.5q-69 0 -102 48.5t-33 125.5zM512 1083q0 58 16.5 114 t62 107.5t114.5 67.5q19 4 22 -12q3 -17 -16 -21q-39 -10 -75 -40.5t-56 -79.5q-19 -46 -20 -96t11 -64q9 28 32 44.5t52 16.5q43 0 72 -31t29 -69q0 -43 -29 -75.5t-80 -35.5q-69 0 -102 48.5t-33 125.5z" />
<glyph unicode="&#x201d;" horiz-adv-x="919" d="M164 1262q0 43 28.5 75t79.5 35q69 0 102.5 -48.5t33.5 -125.5q0 -58 -16.5 -114t-62 -107.5t-114.5 -67.5q-19 -4 -22 13q-3 16 16 20q39 10 75 41t56 80q19 46 19.5 96t-11.5 64q-9 -28 -32 -45t-52 -17q-43 0 -71.5 31t-28.5 70zM512 1262q0 43 29 75t80 35 q69 0 102 -48.5t33 -125.5q0 -58 -16.5 -114t-62 -107.5t-114.5 -67.5q-19 -4 -22 13q-3 16 16 20q39 10 75 41t56 80q19 46 19.5 96t-11.5 64q-9 -28 -32 -45t-52 -17q-43 0 -71.5 31t-28.5 70z" />
<glyph unicode="&#x201e;" horiz-adv-x="919" d="M164 86q0 43 28.5 75.5t79.5 35.5q69 0 102.5 -48.5t33.5 -125.5q0 -58 -16.5 -114t-62 -107.5t-114.5 -67.5q-19 -4 -22 12q-3 17 16 21q39 10 75 40.5t56 79.5q19 46 19.5 96t-11.5 64q-9 -28 -32 -44.5t-52 -16.5q-43 0 -71.5 30.5t-28.5 69.5zM512 86q0 43 29 75.5 t80 35.5q69 0 102 -48.5t33 -125.5q0 -58 -16.5 -114t-62 -107.5t-114.5 -67.5q-19 -4 -22 12q-3 17 16 21q39 10 75 40.5t56 79.5q19 46 19.5 96t-11.5 64q-9 -28 -32 -44.5t-52 -16.5q-43 0 -71.5 30.5t-28.5 69.5z" />
<glyph unicode="&#x2022;" horiz-adv-x="731" d="M164 475q0 85 58 144t143 59t143.5 -59t58.5 -144t-58.5 -143t-143.5 -58t-143 58t-58 143z" />
<glyph unicode="&#x2026;" horiz-adv-x="1570" d="M164 88q0 46 33 78.5t77 32.5t76.5 -32.5t32.5 -78.5q0 -45 -32 -76.5t-77 -31.5t-77.5 31.5t-32.5 76.5zM676 88q0 46 33 78.5t77 32.5t76.5 -32.5t32.5 -78.5q0 -45 -32 -76.5t-77 -31.5t-77.5 31.5t-32.5 76.5zM1188 88q0 46 33 78.5t77 32.5t76.5 -32.5t32.5 -78.5 q0 -45 -32 -76.5t-77 -31.5t-77.5 31.5t-32.5 76.5z" />
<glyph unicode="&#x202f;" horiz-adv-x="387" />
<glyph unicode="&#x2039;" horiz-adv-x="833" d="M164 520q0 12 14 23l438 317q10 8 25.5 7t22.5 -11q7 -9 3 -22.5t-16 -22.5l-389 -291l389 -291q12 -9 16 -22.5t-3 -22.5q-7 -10 -22.5 -11t-25.5 7l-438 318q-14 10 -14 22z" />
<glyph unicode="&#x203a;" horiz-adv-x="833" d="M166.5 206.5q3.5 13.5 15.5 22.5l389 291l-389 291q-12 9 -15.5 22.5t3.5 22.5q7 10 22 11t25 -7l438 -317q15 -11 15 -23q0 -11 -15 -22l-438 -318q-10 -8 -25 -7t-22 11q-7 9 -3.5 22.5z" />
<glyph unicode="&#x205f;" horiz-adv-x="483" />
<glyph unicode="&#x20ac;" horiz-adv-x="1351" d="M41 584q0 13 8.5 21.5t22.5 8.5h86q-4 25 -4 78q0 43 2 66h-84q-14 0 -22.5 8.5t-8.5 21.5t8.5 22t22.5 9h92q19 118 72 224.5t131.5 189t188 131.5t232.5 49q54 0 138 -19t159 -63q6 -3 17 -9.5t16.5 -9.5t13.5 -6t16.5 -4.5t18.5 -1.5q21 0 33 16t15.5 35.5t12 35.5 t21.5 16q21 0 21 -31v-420q0 -13 -6.5 -21.5t-18.5 -8.5t-19 9t-7 21q0 192 -120.5 296t-310.5 104q-94 0 -166.5 -29t-117.5 -77t-75 -119t-43.5 -144t-18.5 -164h411q14 0 22.5 -9t8.5 -22t-8.5 -21.5t-22.5 -8.5h-413v-66v-78h413q14 0 22.5 -8.5t8.5 -21.5t-8.5 -22 t-22.5 -9h-409q5 -89 19 -161t44.5 -141.5t75.5 -116t116.5 -75t163.5 -28.5q190 0 310.5 103.5t120.5 295.5q0 13 7 22t19 9q11 0 18 -9t7 -22v-420q0 -30 -21 -30q-13 0 -21.5 16t-12 35t-15.5 35t-33 16q-13 0 -24.5 -3t-16 -5t-20.5 -11t-21 -12q-75 -44 -159 -63 t-138 -19q-122 0 -230 47.5t-186.5 128.5t-131.5 186t-74 222h-94q-14 0 -22.5 9t-8.5 22z" />
<glyph unicode="&#x2122;" horiz-adv-x="2060" d="M164 1186l12 184q0 12 12 12h646q12 0 12 -12l12 -184q0 -7 -4.5 -13t-11.5 -6q-6 0 -10.5 6.5t-4.5 12.5q-9 88 -51.5 127t-120.5 39h-71q-5 0 -12 -6t-7 -13v-737q0 -6 7 -12t12 -6h90q12 0 12 -13q0 -10 -12 -10h-324q-16 0 -16 10q0 13 16 13h84q9 0 16 6t7 12v737 q0 7 -7 13t-16 6h-69q-77 0 -118.5 -38.5t-51.5 -127.5q-5 -19 -17 -19q-14 0 -14 19zM958 565q0 13 9 13h96q6 0 11 6t5 12v743q0 7 -5 13t-11 6h-96q-9 0 -9 12t9 12h217q9 0 12 -12l231 -643l234 643v2q3 10 12 10h211q12 0 12 -12q0 -4 -4 -8t-8 -4h-90q-18 0 -18 -19 v-743q0 -7 5 -12.5t13 -5.5h90q12 0 12 -13q0 -10 -12 -10h-325q-15 0 -15 10q0 6 5 9.5t10 3.5h88q16 0 16 18v696l-258 -727q-10 -24 -21 -24q-10 0 -20 24l-250 723h-4v-692q0 -6 6 -12t14 -6h89q12 0 12 -13q0 -10 -12 -10h-252q-9 0 -9 10z" />
<glyph unicode="&#xe000;" horiz-adv-x="860" d="M0 0v860h860v-860h-860z" />
</font>
</defs>
</svg>
